<svg width="38" height="23" viewBox="0 0 38 23" fill="none" xmlns="http://www.w3.org/2000/svg">
<path d="M36.9523 13.2807L36.9522 13.2808L30.7929 21.6808L30.7929 21.6809C30.4308 22.1744 29.9008 22.5 29.3009 22.5H13.2988H2.53982C1.91699 22.5 1.39538 22.1546 1.04776 21.6805C0.699928 21.2061 0.5 20.5749 0.5 19.9V3.1C0.5 2.42506 0.699928 1.79391 1.04776 1.3195C1.39538 0.845389 1.91699 0.5 2.53982 0.5H7.1593H10.2389H13.3186H29.3009C29.9008 0.5 30.4309 0.825676 30.7929 1.31943L36.9522 9.71943C37.3266 10.23 37.5 10.8762 37.5 11.5C37.5 12.1239 37.3266 12.7701 36.9523 13.2807ZM13.3186 1.5H10.2389H7.1593H2.53982C2.31221 1.5 2.06391 1.6248 1.85422 1.91079C1.64476 2.19647 1.5 2.61532 1.5 3.1V19.9C1.5 20.3847 1.64476 20.8035 1.85422 21.0892C2.06391 21.3752 2.31221 21.5 2.53982 21.5H13.2988H29.3009C29.5178 21.5 29.7712 21.383 29.9866 21.0894L36.1458 12.6895C36.1458 12.6895 36.1458 12.6895 36.1458 12.6895C36.3727 12.3799 36.5 11.9511 36.5 11.5C36.5 11.0489 36.3727 10.6202 36.1458 10.3108L29.9865 1.91075C29.7711 1.617 29.5177 1.5 29.3009 1.5H13.3186ZM31.7752 11.2044L31.9919 11.5L31.7752 11.7956L28.0664 16.8547L27.9165 17.0591H27.6631H6.07965H5.57965V16.5591V6.44091V5.94091H6.07965H27.6631H27.9165L28.0664 6.14529L31.7752 11.2044Z" fill="#96A4A3" stroke="#96A4A3"/>
</svg>
