<svg width="187" height="75" viewBox="0 0 187 75" fill="none" xmlns="http://www.w3.org/2000/svg">
<path d="M37.7485 59H0.000488281V5.08496H10.791V48.2095H37.7485V59ZM80.1587 38.5093C80.1587 41.5171 79.6198 44.3244 78.542 46.9312C77.4642 49.5129 75.9979 51.7562 74.1431 53.6611C72.2882 55.541 70.1076 57.0324 67.6011 58.1353C65.1196 59.2131 62.4502 59.752 59.5928 59.752C56.7604 59.752 54.091 59.2131 51.5845 58.1353C49.103 57.0324 46.9224 55.541 45.0425 53.6611C43.1877 51.7562 41.7214 49.5129 40.6436 46.9312C39.5658 44.3244 39.0269 41.5171 39.0269 38.5093C39.0269 35.4513 39.5658 32.619 40.6436 30.0122C41.7214 27.4054 43.1877 25.1621 45.0425 23.2822C46.9224 21.3773 49.103 19.8859 51.5845 18.8081C54.091 17.7303 56.7604 17.1914 59.5928 17.1914C62.4502 17.1914 65.1196 17.7052 67.6011 18.7329C70.1076 19.7355 72.2882 21.1768 74.1431 23.0566C75.9979 24.9115 77.4642 27.1548 78.542 29.7866C79.6198 32.3934 80.1587 35.3009 80.1587 38.5093ZM69.8193 38.5093C69.8193 36.855 69.5436 35.3636 68.9922 34.0352C68.4658 32.6816 67.7389 31.5286 66.8115 30.5762C65.8841 29.5986 64.7938 28.8592 63.5405 28.3579C62.3123 27.8315 60.9964 27.5684 59.5928 27.5684C58.1891 27.5684 56.8607 27.8315 55.6074 28.3579C54.3792 28.8592 53.3014 29.5986 52.374 30.5762C51.4717 31.5286 50.7573 32.6816 50.231 34.0352C49.7046 35.3636 49.4414 36.855 49.4414 38.5093C49.4414 40.0633 49.7046 41.5046 50.231 42.833C50.7573 44.1615 51.4717 45.3145 52.374 46.292C53.3014 47.2695 54.3792 48.0465 55.6074 48.623C56.8607 49.1745 58.1891 49.4502 59.5928 49.4502C60.9964 49.4502 62.3123 49.187 63.5405 48.6606C64.7938 48.1343 65.8841 47.3949 66.8115 46.4424C67.7389 45.4899 68.4658 44.3369 68.9922 42.9834C69.5436 41.6299 69.8193 40.1385 69.8193 38.5093ZM114.485 38.5093C114.485 37.1056 114.21 35.7521 113.658 34.4487C113.132 33.1203 112.405 31.9548 111.478 30.9521C110.55 29.9245 109.46 29.1099 108.207 28.5083C106.978 27.8817 105.662 27.5684 104.259 27.5684C102.855 27.5684 101.527 27.8065 100.273 28.2827C99.0452 28.759 97.9674 29.4608 97.04 30.3882C96.1377 31.3156 95.4233 32.4686 94.897 33.8472C94.3706 35.2007 94.1074 36.7547 94.1074 38.5093C94.1074 40.1886 94.3706 41.7051 94.897 43.0586C95.4233 44.387 96.1377 45.5275 97.04 46.48C97.9674 47.4325 99.0452 48.1719 100.273 48.6982C101.527 49.1995 102.855 49.4502 104.259 49.4502C105.662 49.4502 106.978 49.1494 108.207 48.5479C109.46 47.9212 110.55 47.1066 111.478 46.104C112.405 45.0763 113.132 43.9108 113.658 42.6074C114.21 41.279 114.485 39.9129 114.485 38.5093ZM124.825 53.9243C124.825 56.7567 124.286 59.4136 123.208 61.895C122.13 64.3765 120.651 66.5446 118.771 68.3994C116.917 70.2542 114.736 71.7205 112.229 72.7983C109.748 73.8761 107.091 74.415 104.259 74.415L99.1079 74.3398V64.0757L104.184 64.1509C105.788 64.1509 107.154 63.9378 108.282 63.5117C109.41 63.1107 110.362 62.5467 111.139 61.8198C111.916 61.118 112.53 60.3034 112.981 59.376C113.458 58.4486 113.834 57.471 114.109 56.4434C113.708 57.0951 113.132 57.634 112.38 58.0601C111.628 58.4611 110.788 58.7869 109.861 59.0376C108.958 59.3133 108.006 59.5013 107.003 59.6016C106.026 59.7018 105.111 59.752 104.259 59.752C101.426 59.752 98.757 59.2632 96.2505 58.2856C93.769 57.3081 91.5884 55.917 89.7085 54.1123C87.8537 52.2826 86.3874 50.0518 85.3096 47.4199C84.2318 44.7881 83.6929 41.8179 83.6929 38.5093C83.6929 35.4764 84.2318 32.6566 85.3096 30.0498C86.3874 27.443 87.8537 25.1872 89.7085 23.2822C91.5884 21.3773 93.769 19.8859 96.2505 18.8081C98.757 17.7303 101.426 17.1914 104.259 17.1914C105.562 17.1914 106.853 17.3543 108.131 17.6802C109.41 18.006 110.65 18.4572 111.854 19.0337C113.057 19.6102 114.197 20.2869 115.275 21.064C116.378 21.841 117.405 22.6807 118.358 23.583L122.343 18.8081H124.825V53.9243Z" fill="#525359"/>
<path d="M144.789 7.79199C144.789 8.74447 144.601 9.63428 144.225 10.4614C143.874 11.2886 143.385 12.0155 142.759 12.6421C142.132 13.2437 141.393 13.7324 140.541 14.1084C139.713 14.4593 138.824 14.6348 137.871 14.6348C136.919 14.6348 136.016 14.4593 135.164 14.1084C134.337 13.7324 133.61 13.2437 132.983 12.6421C132.382 12.0155 131.893 11.2886 131.517 10.4614C131.166 9.63428 130.991 8.74447 130.991 7.79199C130.991 6.86458 131.166 5.9873 131.517 5.16016C131.893 4.30794 132.382 3.58105 132.983 2.97949C133.61 2.35286 134.337 1.8641 135.164 1.51318C136.016 1.13721 136.919 0.949219 137.871 0.949219C138.824 0.949219 139.713 1.13721 140.541 1.51318C141.393 1.8641 142.132 2.35286 142.759 2.97949C143.385 3.58105 143.874 4.30794 144.225 5.16016C144.601 5.9873 144.789 6.86458 144.789 7.79199ZM143.022 59H132.683V18.7329H143.022V59ZM161.144 59H150.88V18.7329H153.361L156.745 22.6431C158.399 21.1392 160.267 19.9862 162.347 19.1841C164.453 18.3569 166.646 17.9434 168.927 17.9434C171.383 17.9434 173.702 18.4196 175.882 19.3721C178.063 20.2995 179.968 21.5903 181.597 23.2446C183.226 24.8739 184.505 26.7913 185.432 28.9971C186.385 31.1777 186.861 33.5088 186.861 35.9902V59H176.597V35.9902C176.597 34.9375 176.396 33.9474 175.995 33.02C175.594 32.0675 175.043 31.2404 174.341 30.5386C173.639 29.8368 172.824 29.2853 171.897 28.8843C170.97 28.4832 169.979 28.2827 168.927 28.2827C167.849 28.2827 166.834 28.4832 165.881 28.8843C164.929 29.2853 164.102 29.8368 163.4 30.5386C162.698 31.2404 162.147 32.0675 161.746 33.02C161.345 33.9474 161.144 34.9375 161.144 35.9902V59Z" fill="#42ABA7"/>
</svg>
