<svg width="149" height="54" viewBox="0 0 149 54" fill="none" xmlns="http://www.w3.org/2000/svg">
<path d="M53.8 30.6853C53.8 30.0473 53.6747 29.4321 53.424 28.8396C53.1848 28.2358 52.8543 27.706 52.4328 27.2503C52.0113 26.7832 51.5156 26.4129 50.946 26.1394C50.3877 25.8546 49.7896 25.7122 49.1516 25.7122C48.5135 25.7122 47.9097 25.8204 47.34 26.0369C46.7818 26.2534 46.2918 26.5724 45.8703 26.9939C45.4601 27.4155 45.1354 27.9396 44.8962 28.5662C44.6569 29.1814 44.5373 29.8878 44.5373 30.6853C44.5373 31.4487 44.6569 32.138 44.8962 32.7532C45.1354 33.357 45.4601 33.8754 45.8703 34.3084C46.2918 34.7413 46.7818 35.0774 47.34 35.3167C47.9097 35.5445 48.5135 35.6585 49.1516 35.6585C49.7896 35.6585 50.3877 35.5218 50.946 35.2483C51.5156 34.9635 52.0113 34.5932 52.4328 34.1375C52.8543 33.6704 53.1848 33.1406 53.424 32.5481C53.6747 31.9443 53.8 31.3234 53.8 30.6853ZM58.4997 37.6922C58.4997 38.9796 58.2547 40.1873 57.7648 41.3152C57.2749 42.4431 56.6027 43.4287 55.7482 44.2718C54.9051 45.1149 53.9139 45.7814 52.7746 46.2713C51.6467 46.7612 50.439 47.0061 49.1516 47.0061L46.8102 46.972V42.3064L49.1174 42.3406C49.8465 42.3406 50.4675 42.2438 50.9802 42.0501C51.4929 41.8678 51.9258 41.6114 52.279 41.281C52.6322 40.962 52.9113 40.5917 53.1164 40.1702C53.3329 39.7486 53.5038 39.3043 53.6291 38.8372C53.4468 39.1334 53.1848 39.3784 52.843 39.5721C52.5012 39.7543 52.1195 39.9025 51.6979 40.0164C51.2878 40.1417 50.8548 40.2272 50.3991 40.2727C49.9548 40.3183 49.5389 40.3411 49.1516 40.3411C47.8641 40.3411 46.6507 40.1189 45.5114 39.6746C44.3835 39.2303 43.3923 38.5979 42.5378 37.7776C41.6947 36.9459 41.0282 35.9319 40.5383 34.7356C40.0484 33.5393 39.8034 32.1892 39.8034 30.6853C39.8034 29.3068 40.0484 28.025 40.5383 26.8401C41.0282 25.6552 41.6947 24.6298 42.5378 23.7639C43.3923 22.8981 44.3835 22.2202 45.5114 21.7303C46.6507 21.2403 47.8641 20.9954 49.1516 20.9954C49.744 20.9954 50.3307 21.0694 50.9118 21.2176C51.4929 21.3657 52.0568 21.5707 52.6037 21.8328C53.1506 22.0948 53.669 22.4025 54.1589 22.7556C54.6602 23.1088 55.1273 23.4905 55.5602 23.9007L57.3718 21.7303H58.4997V37.6922ZM69.3517 35.5218C69.534 35.5787 69.7163 35.6186 69.8986 35.6414C70.0809 35.6528 70.2632 35.6585 70.4455 35.6585C70.9012 35.6585 71.3399 35.5958 71.7614 35.4705C72.183 35.3452 72.576 35.1686 72.9406 34.9407C73.3166 34.7014 73.647 34.4166 73.9318 34.0862C74.228 33.7444 74.4673 33.3684 74.6496 32.9583L78.0676 36.3933C77.6346 37.0086 77.1333 37.5611 76.5637 38.0511C76.0054 38.541 75.3959 38.9568 74.735 39.2986C74.0856 39.6404 73.3963 39.8968 72.6672 40.0677C71.9494 40.2499 71.2088 40.3411 70.4455 40.3411C69.1581 40.3411 67.9447 40.1018 66.8054 39.6233C65.6774 39.1448 64.6862 38.4783 63.8317 37.6238C62.9886 36.7693 62.3221 35.7553 61.8322 34.5818C61.3423 33.3969 61.0974 32.0981 61.0974 30.6853C61.0974 29.2384 61.3423 27.9168 61.8322 26.7205C62.3221 25.5242 62.9886 24.5045 63.8317 23.6614C64.6862 22.8183 65.6774 22.1632 66.8054 21.6961C67.9447 21.229 69.1581 20.9954 70.4455 20.9954C71.2088 20.9954 71.9551 21.0865 72.6843 21.2688C73.4134 21.4511 74.1027 21.7132 74.7521 22.055C75.4129 22.3968 76.0282 22.8183 76.5978 23.3196C77.1675 23.8095 77.6688 24.3621 78.1017 24.9773L69.3517 35.5218ZM71.7443 25.9002C71.5279 25.8204 71.3114 25.7692 71.0949 25.7464C70.8898 25.7236 70.6734 25.7122 70.4455 25.7122C69.8075 25.7122 69.2036 25.8318 68.634 26.0711C68.0757 26.2989 67.5858 26.6293 67.1642 27.0623C66.7541 27.4952 66.4294 28.0193 66.1901 28.6346C65.9509 29.2384 65.8312 29.922 65.8312 30.6853C65.8312 30.8562 65.8369 31.0499 65.8483 31.2664C65.8711 31.4829 65.8996 31.705 65.9338 31.9329C65.9793 32.1494 66.0306 32.3601 66.0876 32.5652C66.1446 32.7703 66.2186 32.9526 66.3098 33.1121L71.7443 25.9002ZM89.6374 39.9993C88.5095 39.9993 87.4499 39.7885 86.4587 39.367C85.4675 38.934 84.5959 38.3473 83.8439 37.6067C83.1034 36.8548 82.5166 35.9832 82.0837 34.992C81.6621 34.0008 81.4514 32.9412 81.4514 31.8133V26.3787H79.1784V21.7303H81.4514V14.4158H86.0998V21.7303H93.175V26.3787H86.0998V31.8133C86.0998 32.3032 86.1909 32.7646 86.3732 33.1975C86.5555 33.6191 86.8062 33.9894 87.1252 34.3084C87.4442 34.6274 87.8202 34.8837 88.2531 35.0774C88.6861 35.2597 89.1475 35.3509 89.6374 35.3509H93.175V39.9993H89.6374ZM113.495 30.6853C113.495 32.0525 113.25 33.3286 112.76 34.5135C112.27 35.687 111.604 36.7067 110.76 37.5725C109.917 38.427 108.926 39.1049 107.787 39.6062C106.659 40.0961 105.445 40.3411 104.147 40.3411C102.859 40.3411 101.646 40.0961 100.507 39.6062C99.3786 39.1049 98.3874 38.427 97.5329 37.5725C96.6898 36.7067 96.0233 35.687 95.5334 34.5135C95.0435 33.3286 94.7985 32.0525 94.7985 30.6853C94.7985 29.2954 95.0435 28.0079 95.5334 26.823C96.0233 25.6381 96.6898 24.6184 97.5329 23.7639C98.3874 22.8981 99.3786 22.2202 100.507 21.7303C101.646 21.2403 102.859 20.9954 104.147 20.9954C105.445 20.9954 106.659 21.229 107.787 21.6961C108.926 22.1518 109.917 22.8069 110.76 23.6614C111.604 24.5045 112.27 25.5242 112.76 26.7205C113.25 27.9054 113.495 29.227 113.495 30.6853ZM108.795 30.6853C108.795 29.9334 108.67 29.2555 108.419 28.6516C108.18 28.0364 107.849 27.5123 107.428 27.0794C107.006 26.635 106.511 26.2989 105.941 26.0711C105.383 25.8318 104.785 25.7122 104.147 25.7122C103.509 25.7122 102.905 25.8318 102.335 26.0711C101.777 26.2989 101.287 26.635 100.865 27.0794C100.455 27.5123 100.131 28.0364 99.8913 28.6516C99.652 29.2555 99.5324 29.9334 99.5324 30.6853C99.5324 31.3917 99.652 32.0468 99.8913 32.6507C100.131 33.2545 100.455 33.7786 100.865 34.2229C101.287 34.6673 101.777 35.0205 102.335 35.2825C102.905 35.5332 103.509 35.6585 104.147 35.6585C104.785 35.6585 105.383 35.5388 105.941 35.2996C106.511 35.0603 107.006 34.7242 107.428 34.2913C107.849 33.8583 108.18 33.3343 108.419 32.719C108.67 32.1038 108.795 31.4259 108.795 30.6853ZM129.525 37.8631C129.149 38.2049 128.745 38.5296 128.312 38.8372C127.89 39.1334 127.446 39.3955 126.979 39.6233C126.512 39.8398 126.027 40.0107 125.526 40.136C125.036 40.2727 124.535 40.3411 124.022 40.3411C122.894 40.3411 121.835 40.1417 120.843 39.743C119.852 39.3442 118.981 38.7802 118.229 38.0511C117.488 37.3105 116.901 36.4161 116.468 35.368C116.047 34.3084 115.836 33.1235 115.836 31.8133V21.6961H120.485V31.8133C120.485 32.4285 120.576 32.9811 120.758 33.471C120.952 33.9495 121.208 34.354 121.527 34.6844C121.846 35.0148 122.216 35.2654 122.638 35.4363C123.071 35.6072 123.532 35.6927 124.022 35.6927C124.501 35.6927 124.951 35.5844 125.372 35.368C125.805 35.1401 126.181 34.8439 126.5 34.4793C126.819 34.1147 127.07 33.7045 127.252 33.2488C127.434 32.7817 127.526 32.3032 127.526 31.8133V21.6961H132.191V39.9993H131.063L129.525 37.8631ZM140.428 39.9993H135.763V21.6961H136.891L138.429 23.8665C139.181 23.1829 140.035 22.6588 140.992 22.2942C141.949 21.9182 142.941 21.7303 143.966 21.7303H148.085V26.3787H143.966C143.476 26.3787 143.015 26.4698 142.582 26.6521C142.149 26.8344 141.773 27.0851 141.454 27.4041C141.135 27.7231 140.884 28.0991 140.702 28.532C140.52 28.965 140.428 29.4264 140.428 29.9163V39.9993Z" fill="#42ABA7"/>
<path d="M24.2646 14.1507C23.4287 14.1526 22.7494 13.4765 22.7475 12.6406C22.7455 11.8047 23.4216 11.1255 24.2575 11.1236C25.0934 11.1216 25.7727 11.7977 25.7746 12.6336C25.7765 13.4695 25.1005 14.1487 24.2646 14.1507Z" fill="#42ABA7"/>
<path d="M5.67464 21.0842C5.90817 20.8448 6.22713 20.7078 6.56164 20.7035L20.4312 20.5274L20.3992 18.0057L16.6166 18.0537C15.9202 18.0626 15.3485 17.5051 15.3397 16.8089L15.2116 6.72189C15.2028 6.02564 15.7601 5.45385 16.4565 5.44501L20.2391 5.39698L20.1911 1.61437C20.1822 0.918116 20.7395 0.34633 21.4359 0.337488L26.4794 0.273449C27.1758 0.264606 27.7474 0.822057 27.7563 1.51831L27.8043 5.30092L41.6739 5.12481C42.0083 5.12057 42.3307 5.24939 42.5702 5.4828L47.6777 10.4622C48.1763 10.9484 48.1864 11.7467 47.7003 12.2455L42.7209 17.353C42.4875 17.5923 42.1684 17.7293 41.834 17.7335L27.9644 17.9096L27.9964 20.4314L31.7791 20.3833C32.4754 20.3745 33.0471 20.932 33.0559 21.6282L33.184 31.7152C33.1929 32.4114 32.6355 32.9832 31.9391 32.9921L28.1565 33.0401L28.3807 50.6923L31.301 50.7249C31.9974 50.716 32.569 51.2735 32.5779 51.9697C32.5867 52.666 32.0294 53.2378 31.333 53.2466L17.9272 53.2775C17.2309 53.2863 16.6591 52.7289 16.6503 52.0326C16.6414 51.3364 17.1989 50.7646 17.8951 50.7558L20.8154 50.7883L20.5913 33.1361L6.72173 33.3122C6.38735 33.3165 6.06502 33.1877 5.82548 32.9543L0.717958 27.9748C0.219336 27.4887 0.209199 26.6903 0.695315 26.1916L5.67464 21.0842ZM25.2506 2.8112L22.7288 2.84322L22.7608 5.36496L25.2826 5.33294L25.2506 2.8112ZM45.0143 11.3878L41.1837 7.65319L17.7494 7.95074L17.8454 15.516L41.2797 15.2184L45.0143 11.3878ZM25.4427 17.9417L22.9209 17.9737L22.953 20.4954L25.4747 20.4634L25.4427 17.9417ZM23.3372 50.7563L25.8589 50.7243L25.6348 33.0721L23.1131 33.1041L23.3372 50.7563ZM7.21196 30.7839L30.6463 30.4863L30.5502 22.9211L7.11603 23.2186L3.38145 27.0493L7.21196 30.7839Z" fill="#42ABA7"/>
<path d="M24.2998 29.2824C23.4639 29.2843 22.7847 28.6082 22.7827 27.7723C22.7808 26.9364 23.4568 26.2572 24.2928 26.2552C25.1287 26.2533 25.8079 26.9294 25.8098 27.7653C25.8118 28.6012 25.1357 29.2804 24.2998 29.2824Z" fill="#42ABA7"/>
</svg>
