<svg width="145" height="107" viewBox="0 0 145 107" fill="none" xmlns="http://www.w3.org/2000/svg">
<path d="M78.0967 8.57692H78.5967V9.07692V17.1538V17.6538H78.0967H69.5468H69.0468V17.1538V9.07692V8.57692H69.5468H78.0967ZM133.865 36.9827L134.25 37.3462L133.865 37.7096L121.041 49.825L120.896 49.9615H120.697H52.4469H51.9469V49.4615V25.2308V24.7308H52.4469H120.697H120.896L121.041 24.8673L133.865 36.9827ZM78.0967 57.0385H78.5967V57.5385V65.6154V66.1154H78.0967H69.5468H69.0468V65.6154V57.5385V57.0385H69.5468H78.0967ZM24.1454 98.4231H23.9466L23.802 98.2865L10.9776 86.1712L10.5928 85.8077L10.9776 85.4442L23.8025 73.3288L23.947 73.1923H24.1458H95.1966H95.6966V73.6923V97.9231V98.4231H95.1966H24.1454Z" fill="#42ABA7" stroke="#42ABA7"/>
</svg>
