<svg width="185" height="39" viewBox="0 0 185 39" fill="none" xmlns="http://www.w3.org/2000/svg">
<path d="M81.8828 32.168C80.5807 33.2747 79.1289 34.1276 77.5273 34.7266C75.9258 35.3125 74.2591 35.6055 72.5273 35.6055C71.1992 35.6055 69.9167 35.4297 68.6797 35.0781C67.4557 34.7396 66.3099 34.2578 65.2422 33.6328C64.1745 32.9948 63.1979 32.2396 62.3125 31.3672C61.4271 30.4818 60.6719 29.5052 60.0469 28.4375C59.4219 27.3568 58.9336 26.1979 58.582 24.9609C58.2435 23.724 58.0742 22.4414 58.0742 21.1133C58.0742 19.7852 58.2435 18.5091 58.582 17.2852C58.9336 16.0612 59.4219 14.9154 60.0469 13.8477C60.6719 12.7669 61.4271 11.7904 62.3125 10.918C63.1979 10.0326 64.1745 9.27734 65.2422 8.65234C66.3099 8.02734 67.4557 7.54557 68.6797 7.20703C69.9167 6.85547 71.1992 6.67969 72.5273 6.67969C74.2591 6.67969 75.9258 6.97917 77.5273 7.57812C79.1289 8.16406 80.5807 9.01042 81.8828 10.1172L78.9531 15C78.1068 14.1406 77.1302 13.4701 76.0234 12.9883C74.9167 12.4935 73.7513 12.2461 72.5273 12.2461C71.3034 12.2461 70.151 12.4805 69.0703 12.9492C68.0026 13.418 67.0651 14.056 66.2578 14.8633C65.4505 15.6576 64.8125 16.5951 64.3438 17.6758C63.875 18.7435 63.6406 19.8893 63.6406 21.1133C63.6406 22.3503 63.875 23.5091 64.3438 24.5898C64.8125 25.6706 65.4505 26.6146 66.2578 27.4219C67.0651 28.2292 68.0026 28.8672 69.0703 29.3359C70.151 29.8047 71.3034 30.0391 72.5273 30.0391C73.2305 30.0391 73.9141 29.9544 74.5781 29.7852C75.2422 29.6159 75.8737 29.3815 76.4727 29.082V21.1133H81.8828V32.168ZM93.9531 29.8828C94.1615 29.9479 94.3698 29.9935 94.5781 30.0195C94.7865 30.0326 94.9948 30.0391 95.2031 30.0391C95.724 30.0391 96.2253 29.9674 96.707 29.8242C97.1888 29.681 97.638 29.4792 98.0547 29.2188C98.4844 28.9453 98.862 28.6198 99.1875 28.2422C99.526 27.8516 99.7995 27.4219 100.008 26.9531L103.914 30.8789C103.419 31.582 102.846 32.2135 102.195 32.7734C101.557 33.3333 100.861 33.8086 100.105 34.1992C99.3633 34.5898 98.5755 34.8828 97.7422 35.0781C96.9219 35.2865 96.0755 35.3906 95.2031 35.3906C93.7318 35.3906 92.3451 35.1172 91.043 34.5703C89.7539 34.0234 88.6211 33.2617 87.6445 32.2852C86.681 31.3086 85.9193 30.1497 85.3594 28.8086C84.7995 27.4544 84.5195 25.9701 84.5195 24.3555C84.5195 22.7018 84.7995 21.1914 85.3594 19.8242C85.9193 18.457 86.681 17.2917 87.6445 16.3281C88.6211 15.3646 89.7539 14.6159 91.043 14.082C92.3451 13.5482 93.7318 13.2812 95.2031 13.2812C96.0755 13.2812 96.9284 13.3854 97.7617 13.5938C98.5951 13.8021 99.3828 14.1016 100.125 14.4922C100.88 14.8828 101.583 15.3646 102.234 15.9375C102.885 16.4974 103.458 17.1289 103.953 17.832L93.9531 29.8828ZM96.6875 18.8867C96.4401 18.7956 96.1927 18.737 95.9453 18.7109C95.7109 18.6849 95.4635 18.6719 95.2031 18.6719C94.474 18.6719 93.7839 18.8086 93.1328 19.082C92.4948 19.3424 91.9349 19.7201 91.4531 20.2148C90.9844 20.7096 90.6133 21.3086 90.3398 22.0117C90.0664 22.7018 89.9297 23.4831 89.9297 24.3555C89.9297 24.5508 89.9362 24.7721 89.9492 25.0195C89.9753 25.2669 90.0078 25.5208 90.0469 25.7812C90.099 26.0286 90.1576 26.2695 90.2227 26.5039C90.2878 26.7383 90.3724 26.9466 90.4766 27.1289L96.6875 18.8867ZM117.137 35C115.848 35 114.637 34.7591 113.504 34.2773C112.371 33.7826 111.375 33.112 110.516 32.2656C109.669 31.4062 108.999 30.4102 108.504 29.2773C108.022 28.1445 107.781 26.9336 107.781 25.6445V19.4336H105.184V14.1211H107.781V5.76172H113.094V14.1211H121.18V19.4336H113.094V25.6445C113.094 26.2044 113.198 26.7318 113.406 27.2266C113.615 27.7083 113.901 28.1315 114.266 28.4961C114.63 28.8607 115.06 29.1536 115.555 29.375C116.049 29.5833 116.577 29.6875 117.137 29.6875H121.18V35H117.137ZM144.402 24.3555C144.402 25.918 144.122 27.3763 143.562 28.7305C143.003 30.0716 142.241 31.237 141.277 32.2266C140.314 33.2031 139.181 33.9779 137.879 34.5508C136.59 35.1107 135.203 35.3906 133.719 35.3906C132.247 35.3906 130.861 35.1107 129.559 34.5508C128.27 33.9779 127.137 33.2031 126.16 32.2266C125.197 31.237 124.435 30.0716 123.875 28.7305C123.315 27.3763 123.035 25.918 123.035 24.3555C123.035 22.7669 123.315 21.2956 123.875 19.9414C124.435 18.5872 125.197 17.4219 126.16 16.4453C127.137 15.4557 128.27 14.681 129.559 14.1211C130.861 13.5612 132.247 13.2812 133.719 13.2812C135.203 13.2812 136.59 13.5482 137.879 14.082C139.181 14.6029 140.314 15.3516 141.277 16.3281C142.241 17.2917 143.003 18.457 143.562 19.8242C144.122 21.1784 144.402 22.6888 144.402 24.3555ZM139.031 24.3555C139.031 23.4961 138.888 22.7214 138.602 22.0312C138.328 21.3281 137.951 20.7292 137.469 20.2344C136.987 19.7266 136.421 19.3424 135.77 19.082C135.132 18.8086 134.448 18.6719 133.719 18.6719C132.99 18.6719 132.299 18.8086 131.648 19.082C131.01 19.3424 130.451 19.7266 129.969 20.2344C129.5 20.7292 129.129 21.3281 128.855 22.0312C128.582 22.7214 128.445 23.4961 128.445 24.3555C128.445 25.1628 128.582 25.9115 128.855 26.6016C129.129 27.2917 129.5 27.8906 129.969 28.3984C130.451 28.9062 131.01 29.3099 131.648 29.6094C132.299 29.8958 132.99 30.0391 133.719 30.0391C134.448 30.0391 135.132 29.9023 135.77 29.6289C136.421 29.3555 136.987 28.9714 137.469 28.4766C137.951 27.9818 138.328 27.3828 138.602 26.6797C138.888 25.9766 139.031 25.2018 139.031 24.3555ZM162.723 32.5586C162.293 32.9492 161.831 33.3203 161.336 33.6719C160.854 34.0104 160.346 34.3099 159.812 34.5703C159.279 34.8177 158.725 35.013 158.152 35.1562C157.592 35.3125 157.02 35.3906 156.434 35.3906C155.145 35.3906 153.934 35.1628 152.801 34.707C151.668 34.2513 150.672 33.6068 149.812 32.7734C148.966 31.9271 148.296 30.9049 147.801 29.707C147.319 28.4961 147.078 27.1419 147.078 25.6445V14.082H152.391V25.6445C152.391 26.3477 152.495 26.9792 152.703 27.5391C152.924 28.0859 153.217 28.5482 153.582 28.9258C153.947 29.3034 154.37 29.5898 154.852 29.7852C155.346 29.9805 155.874 30.0781 156.434 30.0781C156.98 30.0781 157.495 29.9544 157.977 29.707C158.471 29.4466 158.901 29.1081 159.266 28.6914C159.63 28.2747 159.917 27.806 160.125 27.2852C160.333 26.7513 160.438 26.2044 160.438 25.6445V14.082H165.77V35H164.48L162.723 32.5586ZM175.184 35H169.852V14.082H171.141L172.898 16.5625C173.758 15.7812 174.734 15.1823 175.828 14.7656C176.922 14.3359 178.055 14.1211 179.227 14.1211H183.934V19.4336H179.227C178.667 19.4336 178.139 19.5378 177.645 19.7461C177.15 19.9544 176.72 20.2409 176.355 20.6055C175.991 20.9701 175.704 21.3997 175.496 21.8945C175.288 22.3893 175.184 22.9167 175.184 23.4766V35Z" fill="white"/>
<path d="M22.9211 24.57V24.07V21.1863V20.6863H22.4211H17.8421C17.2481 20.6863 16.8158 20.2381 16.8158 19.7444V8.20938C16.8158 7.71572 17.2481 7.26751 17.8421 7.26751H22.4211H22.9211V6.76751V2.44188C22.9211 1.94821 23.3534 1.5 23.9474 1.5H30.0526C30.6466 1.5 31.079 1.94821 31.079 2.44188V6.76751V7.26751H31.579H44.3685C44.6495 7.26751 44.9138 7.3733 45.1044 7.5533L51.2096 13.3208C51.5968 13.6865 51.5968 14.2672 51.2096 14.6331C51.2096 14.6331 51.2096 14.6332 51.2096 14.6332L45.1044 20.4005C44.9139 20.5805 44.6495 20.6863 44.3685 20.6863H31.579H31.079V21.1863V24.07V24.57H31.579H36.1579C36.7519 24.57 37.1842 25.0182 37.1842 25.5119V37.0469C37.1842 37.5406 36.7519 37.9888 36.1579 37.9888H31.579H22.4211H8.63156C8.35064 37.9888 8.08642 37.8831 7.89565 37.703C7.89561 37.703 7.89558 37.7029 7.89555 37.7029L1.79038 31.9355C1.40326 31.5698 1.40317 30.9891 1.79038 30.6232L22.9211 24.57ZM22.9211 24.57H22.4211H8.63156C8.35046 24.57 8.08626 24.6758 7.8955 24.8558C7.89547 24.8558 7.89544 24.8559 7.8954 24.8559L1.79043 30.6231L22.9211 24.57ZM7.20879 24.1289L7.20889 24.1288C7.59079 23.7682 8.10284 23.57 8.63156 23.57H21.9211V21.6863H17.8421C16.7501 21.6863 15.8158 20.8431 15.8158 19.7444V8.20938C15.8158 7.11064 16.7501 6.26751 17.8421 6.26751H21.9211V2.44188C21.9211 1.34313 22.8554 0.5 23.9474 0.5H30.0526C31.1446 0.5 32.079 1.34313 32.079 2.44188V6.26751H44.3685C44.897 6.26751 45.4092 6.46566 45.7911 6.82637L51.8963 12.5939C52.7012 13.3543 52.7012 14.5995 51.8964 15.36L51.8963 15.3601L45.7911 21.1276L45.791 21.1276C45.4092 21.4881 44.897 21.6863 44.3685 21.6863H32.079V23.57H36.1579C37.2499 23.57 38.1842 24.4132 38.1842 25.5119V37.0469C38.1842 38.1457 37.2499 38.9888 36.1579 38.9888H31.579H22.4211H8.63156C8.10297 38.9888 7.59093 38.7906 7.20903 38.43L7.20893 38.4299L1.10367 32.6624C0.298756 31.902 0.298824 30.6568 1.10362 29.8963L1.10367 29.8963L7.20879 24.1289ZM28.5263 3.38375H29.0263V3.88375V6.76751V7.26751H28.5263H25.4737H24.9737V6.76751V3.88375V3.38375H25.4737H28.5263ZM48.6586 13.6134L49.0433 13.9769L48.6586 14.3404L44.0796 18.666L43.9351 18.8025H43.7362H19.3684H18.8684V18.3025V9.65126V9.15126H19.3684H43.7362H43.9351L44.0796 9.2878L48.6586 13.6134ZM28.5263 20.6863H29.0263V21.1863V24.07V24.57H28.5263H25.4737H24.9737V24.07V21.1863V20.6863H25.4737H28.5263ZM9.26375 36.105H9.06492L8.92039 35.9685L4.34159 31.6429L3.95686 31.2794L4.3416 30.9159L8.92055 26.5903L9.06508 26.4538H9.26391H34.6316H35.1316V26.9538V35.605V36.105H34.6316H9.26375Z" fill="white" stroke="white"/>
</svg>
