<svg width="215" height="71" viewBox="0 0 215 71" fill="none" xmlns="http://www.w3.org/2000/svg">
<path d="M95.7581 48.7432C94.2607 50.016 92.5911 50.9967 90.7493 51.6855C88.9075 52.3594 86.9908 52.6963 84.9993 52.6963C83.4719 52.6963 81.997 52.4941 80.5745 52.0898C79.1669 51.7005 77.8492 51.1465 76.6213 50.4277C75.3935 49.694 74.2704 48.8255 73.2522 47.8223C72.234 46.804 71.3655 45.681 70.6467 44.4531C69.928 43.2103 69.3665 41.8776 68.9622 40.4551C68.5728 39.0326 68.3782 37.5576 68.3782 36.0303C68.3782 34.5029 68.5728 33.0355 68.9622 31.6279C69.3665 30.2204 69.928 28.9027 70.6467 27.6748C71.3655 26.432 72.234 25.3089 73.2522 24.3057C74.2704 23.2874 75.3935 22.4189 76.6213 21.7002C77.8492 20.9814 79.1669 20.4274 80.5745 20.0381C81.997 19.6338 83.4719 19.4316 84.9993 19.4316C86.9908 19.4316 88.9075 19.776 90.7493 20.4648C92.5911 21.1387 94.2607 22.112 95.7581 23.3848L92.3889 29C91.4156 28.0117 90.2926 27.2406 89.0198 26.6865C87.747 26.1175 86.4068 25.833 84.9993 25.833C83.5917 25.833 82.2665 26.1025 81.0237 26.6416C79.7958 27.1807 78.7177 27.9144 77.7893 28.8428C76.8609 29.7562 76.1272 30.8343 75.5881 32.0771C75.0491 33.305 74.7795 34.6227 74.7795 36.0303C74.7795 37.4528 75.0491 38.7855 75.5881 40.0283C76.1272 41.2712 76.8609 42.3568 77.7893 43.2852C78.7177 44.2135 79.7958 44.9473 81.0237 45.4863C82.2665 46.0254 83.5917 46.2949 84.9993 46.2949C85.8079 46.2949 86.594 46.1976 87.3577 46.0029C88.1213 45.8083 88.8476 45.5387 89.5364 45.1943V36.0303H95.7581V48.7432ZM109.639 46.1152C109.878 46.1901 110.118 46.2425 110.358 46.2725C110.597 46.2874 110.837 46.2949 111.076 46.2949C111.675 46.2949 112.252 46.2126 112.806 46.0479C113.36 45.8831 113.877 45.651 114.356 45.3516C114.85 45.0371 115.284 44.6628 115.658 44.2285C116.048 43.7793 116.362 43.2852 116.602 42.7461L121.094 47.2607C120.525 48.0693 119.866 48.7956 119.117 49.4395C118.384 50.0833 117.583 50.6299 116.714 51.0791C115.861 51.5283 114.955 51.8652 113.996 52.0898C113.053 52.3294 112.08 52.4492 111.076 52.4492C109.384 52.4492 107.79 52.1348 106.292 51.5059C104.81 50.877 103.507 50.001 102.384 48.8779C101.276 47.7549 100.4 46.4222 99.7561 44.8799C99.1122 43.3226 98.7903 41.6156 98.7903 39.7588C98.7903 37.8571 99.1122 36.1201 99.7561 34.5479C100.4 32.9756 101.276 31.6354 102.384 30.5273C103.507 29.4193 104.81 28.5583 106.292 27.9443C107.79 27.3304 109.384 27.0234 111.076 27.0234C112.08 27.0234 113.06 27.1432 114.019 27.3828C114.977 27.6224 115.883 27.9668 116.737 28.416C117.605 28.8652 118.414 29.4193 119.162 30.0781C119.911 30.722 120.57 31.4482 121.139 32.2568L109.639 46.1152ZM112.783 33.4697C112.499 33.3649 112.214 33.2975 111.93 33.2676C111.66 33.2376 111.376 33.2227 111.076 33.2227C110.238 33.2227 109.444 33.3799 108.696 33.6943C107.962 33.9938 107.318 34.4281 106.764 34.9971C106.225 35.5661 105.798 36.2549 105.484 37.0635C105.169 37.8571 105.012 38.7555 105.012 39.7588C105.012 39.9834 105.019 40.238 105.034 40.5225C105.064 40.807 105.102 41.099 105.147 41.3984C105.207 41.6829 105.274 41.96 105.349 42.2295C105.424 42.499 105.521 42.7386 105.641 42.9482L112.783 33.4697Z" fill="#525359"/>
<path d="M136.3 52C134.818 52 133.425 51.723 132.122 51.1689C130.82 50.5999 129.674 49.8288 128.686 48.8555C127.712 47.8672 126.941 46.7217 126.372 45.4189C125.818 44.1162 125.541 42.7236 125.541 41.2412V34.0986H122.554V27.9893H125.541V18.376H131.651V27.9893H140.949V34.0986H131.651V41.2412C131.651 41.8851 131.77 42.4915 132.01 43.0605C132.25 43.6146 132.579 44.1012 132.998 44.5205C133.418 44.9398 133.912 45.2767 134.481 45.5312C135.05 45.7708 135.656 45.8906 136.3 45.8906H140.949V52H136.3ZM167.656 39.7588C167.656 41.5557 167.334 43.2327 166.69 44.79C166.046 46.3324 165.17 47.6725 164.062 48.8105C162.954 49.9336 161.651 50.8245 160.154 51.4834C158.671 52.1273 157.076 52.4492 155.369 52.4492C153.677 52.4492 152.083 52.1273 150.585 51.4834C149.103 50.8245 147.8 49.9336 146.677 48.8105C145.569 47.6725 144.693 46.3324 144.049 44.79C143.405 43.2327 143.083 41.5557 143.083 39.7588C143.083 37.932 143.405 36.2399 144.049 34.6826C144.693 33.1253 145.569 31.7852 146.677 30.6621C147.8 29.5241 149.103 28.6331 150.585 27.9893C152.083 27.3454 153.677 27.0234 155.369 27.0234C157.076 27.0234 158.671 27.3304 160.154 27.9443C161.651 28.5433 162.954 29.4043 164.062 30.5273C165.17 31.6354 166.046 32.9756 166.69 34.5479C167.334 36.1051 167.656 37.8421 167.656 39.7588ZM161.479 39.7588C161.479 38.7705 161.314 37.8796 160.985 37.0859C160.67 36.2773 160.236 35.5885 159.682 35.0195C159.128 34.4355 158.476 33.9938 157.728 33.6943C156.994 33.3799 156.208 33.2227 155.369 33.2227C154.531 33.2227 153.737 33.3799 152.989 33.6943C152.255 33.9938 151.611 34.4355 151.057 35.0195C150.518 35.5885 150.091 36.2773 149.777 37.0859C149.462 37.8796 149.305 38.7705 149.305 39.7588C149.305 40.6872 149.462 41.5482 149.777 42.3418C150.091 43.1354 150.518 43.8242 151.057 44.4082C151.611 44.9922 152.255 45.4564 152.989 45.8008C153.737 46.1302 154.531 46.2949 155.369 46.2949C156.208 46.2949 156.994 46.1377 157.728 45.8232C158.476 45.5088 159.128 45.0671 159.682 44.498C160.236 43.929 160.67 43.2402 160.985 42.4316C161.314 41.623 161.479 40.7321 161.479 39.7588ZM188.724 49.1924C188.23 49.6416 187.698 50.0684 187.129 50.4727C186.575 50.862 185.991 51.2064 185.377 51.5059C184.763 51.7904 184.127 52.015 183.468 52.1797C182.824 52.3594 182.165 52.4492 181.491 52.4492C180.009 52.4492 178.616 52.1872 177.314 51.6631C176.011 51.139 174.865 50.3978 173.877 49.4395C172.904 48.4661 172.133 47.2907 171.564 45.9131C171.01 44.5205 170.733 42.9632 170.733 41.2412V27.9443H176.842V41.2412C176.842 42.0498 176.962 42.776 177.201 43.4199C177.456 44.0488 177.793 44.5804 178.212 45.0146C178.631 45.4489 179.118 45.7783 179.672 46.0029C180.241 46.2275 180.848 46.3398 181.491 46.3398C182.12 46.3398 182.712 46.1976 183.266 45.9131C183.835 45.6136 184.329 45.2243 184.748 44.7451C185.168 44.266 185.497 43.7269 185.737 43.1279C185.976 42.514 186.096 41.8851 186.096 41.2412V27.9443H192.228V52H190.745L188.724 49.1924ZM203.054 52H196.922V27.9443H198.405L200.426 30.7969C201.414 29.8984 202.537 29.2096 203.795 28.7305C205.053 28.2363 206.356 27.9893 207.703 27.9893H213.116V34.0986H207.703C207.059 34.0986 206.453 34.2184 205.884 34.458C205.315 34.6976 204.821 35.027 204.402 35.4463C203.982 35.8656 203.653 36.3597 203.413 36.9287C203.174 37.4977 203.054 38.1042 203.054 38.748V52Z" fill="#42ABA7"/>
<path d="M33.8094 17.8841C34.9373 17.8841 35.8515 16.9699 35.8515 15.842C35.8515 14.7142 34.9373 13.7999 33.8094 13.7999C32.6816 13.7999 31.7673 14.7142 31.7673 15.842C31.7673 16.9699 32.6816 17.8841 33.8094 17.8841Z" fill="#42ABA7"/>
<path d="M7.68182 27.5428C8.01753 27.2258 8.47259 27.0476 8.94734 27.0476H28.6316V23.6667H23.2631C22.2748 23.6667 21.4737 22.9097 21.4737 21.9762V8.45238C21.4737 7.5189 22.2748 6.7619 23.2631 6.7619H28.6316V1.69048C28.6316 0.756995 29.4327 0 30.421 0H37.579C38.5673 0 39.3684 0.756995 39.3684 1.69048V6.7619H59.0527C59.5272 6.7619 59.9825 6.94008 60.318 7.25705L67.4759 14.019C68.1747 14.6791 68.1747 15.7495 67.4759 16.4098L60.318 23.1717C59.9825 23.4885 59.5272 23.6667 59.0527 23.6667H39.3684V27.0476H44.7369C45.7252 27.0476 46.5263 27.8046 46.5263 28.7381V42.2619C46.5263 43.1954 45.7252 43.9524 44.7369 43.9524H39.3684V67.619H51.8948C52.8831 67.619 53.6842 68.376 53.6842 69.3095C53.6842 70.243 52.8831 71 51.8948 71H16.1052C15.1171 71 14.3158 70.243 14.3158 69.3095C14.3158 68.376 15.1171 67.619 16.1052 67.619H28.6316V43.9524H8.94734C8.47277 43.9524 8.0177 43.7742 7.68199 43.4572L0.524093 36.6953C-0.174698 36.0352 -0.174698 34.9648 0.524093 34.3045L7.68182 27.5428ZM35.7895 3.38095H32.2105V6.7619H35.7895V3.38095ZM63.6799 15.2143L58.3115 10.1429H25.0526V20.2857H58.3115L63.6799 15.2143ZM35.7895 23.6667H32.2105V27.0476H35.7895V23.6667ZM32.2105 67.619H35.7895V43.9524H32.2105V67.619ZM9.68853 40.5714H42.9474V30.4286H9.68872L4.32029 35.5L9.68853 40.5714Z" fill="#42ABA7"/>
<path d="M33.8094 38.3053C34.9373 38.3053 35.8515 37.391 35.8515 36.2631C35.8515 35.1353 34.9373 34.221 33.8094 34.221C32.6816 34.221 31.7673 35.1353 31.7673 36.2631C31.7673 37.391 32.6816 38.3053 33.8094 38.3053Z" fill="#42ABA7"/>
</svg>
