<svg width="192" height="69" viewBox="0 0 192 69" fill="none" xmlns="http://www.w3.org/2000/svg">
<path d="M28.6152 53.2295C27.1178 54.5022 25.4482 55.483 23.6064 56.1718C21.7646 56.8457 19.848 57.1826 17.8564 57.1826C16.3291 57.1826 14.8542 56.9804 13.4316 56.5761C12.0241 56.1868 10.7064 55.6328 9.47852 54.914C8.25065 54.1803 7.1276 53.3118 6.10938 52.3086C5.09115 51.2903 4.22266 50.1673 3.50391 48.9394C2.78516 47.6966 2.22363 46.3639 1.81934 44.9414C1.43001 43.5188 1.23535 42.0439 1.23535 40.5166C1.23535 38.9892 1.43001 37.5218 1.81934 36.1142C2.22363 34.7067 2.78516 33.389 3.50391 32.1611C4.22266 30.9183 5.09115 29.7952 6.10938 28.792C7.1276 27.7737 8.25065 26.9052 9.47852 26.1865C10.7064 25.4677 12.0241 24.9137 13.4316 24.5244C14.8542 24.1201 16.3291 23.9179 17.8564 23.9179C19.848 23.9179 21.7646 24.2623 23.6064 24.9511C25.4482 25.625 27.1178 26.5983 28.6152 27.8711L25.2461 33.4863C24.2728 32.498 23.1497 31.7269 21.877 31.1728C20.6042 30.6038 19.264 30.3193 17.8564 30.3193C16.4489 30.3193 15.1237 30.5888 13.8809 31.1279C12.653 31.667 11.5749 32.4007 10.6465 33.3291C9.7181 34.2425 8.98438 35.3206 8.44531 36.5634C7.90625 37.7913 7.63672 39.109 7.63672 40.5166C7.63672 41.9391 7.90625 43.2718 8.44531 44.5146C8.98438 45.7575 9.7181 46.8431 10.6465 47.7715C11.5749 48.6998 12.653 49.4336 13.8809 49.9726C15.1237 50.5117 16.4489 50.7812 17.8564 50.7812C18.665 50.7812 19.4512 50.6839 20.2148 50.4892C20.9785 50.2946 21.7048 50.025 22.3936 49.6806V40.5166H28.6152V53.2295ZM42.4961 50.6015C42.7357 50.6764 42.9753 50.7288 43.2148 50.7588C43.4544 50.7737 43.694 50.7812 43.9336 50.7812C44.5326 50.7812 45.109 50.6989 45.6631 50.5341C46.2171 50.3694 46.7337 50.1373 47.2129 49.8379C47.707 49.5234 48.1413 49.1491 48.5156 48.7148C48.9049 48.2656 49.2194 47.7715 49.459 47.2324L53.9512 51.747C53.3822 52.5556 52.7233 53.2819 51.9746 53.9258C51.2409 54.5696 50.4398 55.1162 49.5713 55.5654C48.7178 56.0146 47.8118 56.3515 46.8535 56.5761C45.9102 56.8157 44.9368 56.9355 43.9336 56.9355C42.2415 56.9355 40.6468 56.6211 39.1494 55.9922C37.667 55.3633 36.3643 54.4873 35.2412 53.3642C34.1331 52.2412 33.2572 50.9085 32.6133 49.3662C31.9694 47.8089 31.6475 46.1019 31.6475 44.2451C31.6475 42.3434 31.9694 40.6064 32.6133 39.0341C33.2572 37.4619 34.1331 36.1217 35.2412 35.0136C36.3643 33.9056 37.667 33.0446 39.1494 32.4306C40.6468 31.8167 42.2415 31.5097 43.9336 31.5097C44.9368 31.5097 45.9176 31.6295 46.876 31.8691C47.8343 32.1087 48.7402 32.4531 49.5938 32.9023C50.4622 33.3515 51.2708 33.9056 52.0195 34.5644C52.7682 35.2083 53.4271 35.9345 53.9961 36.7431L42.4961 50.6015ZM45.6406 37.956C45.3561 37.8512 45.0716 37.7838 44.7871 37.7539C44.5176 37.7239 44.2331 37.709 43.9336 37.709C43.0951 37.709 42.3014 37.8662 41.5527 38.1806C40.819 38.4801 40.1751 38.9144 39.6211 39.4834C39.082 40.0524 38.6553 40.7412 38.3408 41.5498C38.0264 42.3434 37.8691 43.2418 37.8691 44.2451C37.8691 44.4697 37.8766 44.7243 37.8916 45.0088C37.9215 45.2933 37.959 45.5853 38.0039 45.8847C38.0638 46.1692 38.1312 46.4463 38.2061 46.7158C38.2809 46.9853 38.3783 47.2249 38.498 47.4345L45.6406 37.956Z" fill="#5A5C63"/>
<path d="M69.1572 56.4863C67.6748 56.4863 66.2822 56.2093 64.9795 55.6552C63.6768 55.0862 62.5312 54.3151 61.543 53.3418C60.5697 52.3535 59.7985 51.208 59.2295 49.9052C58.6755 48.6025 58.3984 47.2099 58.3984 45.7275V38.5849H55.4111V32.4756H58.3984V22.8623H64.5078V32.4756H73.8066V38.5849H64.5078V45.7275C64.5078 46.3714 64.6276 46.9778 64.8672 47.5468C65.1068 48.1009 65.4362 48.5875 65.8555 49.0068C66.2747 49.4261 66.7689 49.763 67.3379 50.0175C67.9069 50.2571 68.5133 50.3769 69.1572 50.3769H73.8066V56.4863H69.1572ZM100.513 44.2451C100.513 46.042 100.191 47.719 99.5469 49.2763C98.903 50.8187 98.027 52.1588 96.9189 53.2968C95.8109 54.4199 94.5081 55.3108 93.0107 55.9697C91.5283 56.6136 89.9336 56.9355 88.2266 56.9355C86.5345 56.9355 84.9398 56.6136 83.4424 55.9697C81.96 55.3108 80.6572 54.4199 79.5342 53.2968C78.4261 52.1588 77.5501 50.8187 76.9062 49.2763C76.2624 47.719 75.9404 46.042 75.9404 44.2451C75.9404 42.4183 76.2624 40.7262 76.9062 39.1689C77.5501 37.6116 78.4261 36.2715 79.5342 35.1484C80.6572 34.0104 81.96 33.1194 83.4424 32.4756C84.9398 31.8317 86.5345 31.5097 88.2266 31.5097C89.9336 31.5097 91.5283 31.8167 93.0107 32.4306C94.5081 33.0296 95.8109 33.8906 96.9189 35.0136C98.027 36.1217 98.903 37.4619 99.5469 39.0341C100.191 40.5914 100.513 42.3284 100.513 44.2451ZM94.3359 44.2451C94.3359 43.2568 94.1712 42.3659 93.8418 41.5722C93.5273 40.7636 93.0931 40.0748 92.5391 39.5058C91.985 38.9218 91.3337 38.4801 90.585 38.1806C89.8512 37.8662 89.0651 37.709 88.2266 37.709C87.388 37.709 86.5944 37.8662 85.8457 38.1806C85.112 38.4801 84.4681 38.9218 83.9141 39.5058C83.375 40.0748 82.9482 40.7636 82.6338 41.5722C82.3193 42.3659 82.1621 43.2568 82.1621 44.2451C82.1621 45.1735 82.3193 46.0345 82.6338 46.8281C82.9482 47.6217 83.375 48.3105 83.9141 48.8945C84.4681 49.4785 85.112 49.9427 85.8457 50.2871C86.5944 50.6165 87.388 50.7812 88.2266 50.7812C89.0651 50.7812 89.8512 50.624 90.585 50.3095C91.3337 49.9951 91.985 49.5534 92.5391 48.9843C93.0931 48.4153 93.5273 47.7265 93.8418 46.9179C94.1712 46.1093 94.3359 45.2184 94.3359 44.2451ZM121.581 53.6787C121.087 54.1279 120.555 54.5547 119.986 54.959C119.432 55.3483 118.848 55.6927 118.234 55.9922C117.62 56.2767 116.984 56.5013 116.325 56.666C115.681 56.8457 115.022 56.9355 114.349 56.9355C112.866 56.9355 111.474 56.6735 110.171 56.1494C108.868 55.6253 107.723 54.8841 106.734 53.9258C105.761 52.9524 104.99 51.777 104.421 50.3994C103.867 49.0068 103.59 47.4495 103.59 45.7275V32.4306H109.699V45.7275C109.699 46.5361 109.819 47.2623 110.059 47.9062C110.313 48.5351 110.65 49.0667 111.069 49.5009C111.489 49.9352 111.975 50.2646 112.529 50.4892C113.098 50.7138 113.705 50.8261 114.349 50.8261C114.978 50.8261 115.569 50.6839 116.123 50.3994C116.692 50.0999 117.186 49.7106 117.605 49.2314C118.025 48.7522 118.354 48.2132 118.594 47.6142C118.833 47.0003 118.953 46.3714 118.953 45.7275V32.4306H125.085V56.4863H123.603L121.581 53.6787ZM135.911 56.4863H129.779V32.4306H131.262L133.283 35.2832C134.271 34.3847 135.395 33.6959 136.652 33.2168C137.91 32.7226 139.213 32.4756 140.561 32.4756H145.974V38.5849H140.561C139.917 38.5849 139.31 38.7047 138.741 38.9443C138.172 39.1839 137.678 39.5133 137.259 39.9326C136.84 40.3519 136.51 40.846 136.271 41.415C136.031 41.984 135.911 42.5905 135.911 43.2343V56.4863Z" fill="#6ED396"/>
<g clip-path="url(#clip0)">
<path d="M150.745 56.1517L151.762 55.8675C152.74 55.5941 153.311 54.5797 153.038 53.6016L141.412 11.9971C141.248 11.41 140.857 10.9121 140.326 10.6129C139.795 10.3137 139.167 10.2379 138.579 10.4019L138.448 10.4386C137.225 10.7802 136.511 12.0484 136.853 13.2711L148.479 54.8755C148.752 55.8536 149.767 56.425 150.745 56.1517V56.1517Z" fill="#6ED396"/>
<path d="M191.686 27.0776C187.999 25.2393 184.588 22.8928 181.553 20.1068C181.298 19.8733 181.198 19.5148 181.296 19.1831C182.8 13.4943 183.917 7.71017 184.639 1.87045C184.753 0.89911 184.229 0.613423 183.677 1.28003C172.84 14.2407 154.089 -1.09118 142.928 10.6887C143.062 10.9395 143.168 11.2047 143.243 11.4791L150.785 38.486C161.965 26.849 180.649 42.0857 191.467 29.1536C192.019 28.487 192.124 27.268 191.686 27.0776V27.0776Z" fill="#6ED396"/>
</g>
<defs>
<clipPath id="clip0">
<rect width="55.2329" height="55.2329" fill="white" transform="translate(136.767 0.965759)"/>
</clipPath>
</defs>
</svg>
