<svg width="390" height="107" viewBox="0 0 390 107" fill="none" xmlns="http://www.w3.org/2000/svg">
<path d="M191.899 80.5483C189.393 82.6789 186.598 84.3206 183.515 85.4736C180.432 86.6016 177.224 87.1655 173.89 87.1655C171.333 87.1655 168.865 86.8271 166.483 86.1504C164.127 85.4987 161.922 84.5713 159.866 83.3682C157.811 82.14 155.931 80.6862 154.227 79.0068C152.522 77.3024 151.068 75.4225 149.865 73.3672C148.662 71.2868 147.722 69.056 147.045 66.6748C146.394 64.2936 146.068 61.8247 146.068 59.2681C146.068 56.7114 146.394 54.255 147.045 51.8989C147.722 49.5428 148.662 47.3371 149.865 45.2817C151.068 43.2013 152.522 41.3215 154.227 39.6421C155.931 37.9377 157.811 36.4839 159.866 35.2808C161.922 34.0776 164.127 33.1502 166.483 32.4985C168.865 31.8218 171.333 31.4834 173.89 31.4834C177.224 31.4834 180.432 32.0599 183.515 33.2129C186.598 34.3408 189.393 35.9701 191.899 38.1006L186.26 47.5C184.631 45.8457 182.751 44.5549 180.62 43.6274C178.49 42.675 176.246 42.1987 173.89 42.1987C171.534 42.1987 169.316 42.6499 167.235 43.5522C165.18 44.4546 163.375 45.6828 161.821 47.2368C160.267 48.7658 159.039 50.5705 158.137 52.6509C157.234 54.7062 156.783 56.9119 156.783 59.2681C156.783 61.6493 157.234 63.88 158.137 65.9604C159.039 68.0409 160.267 69.8581 161.821 71.4121C163.375 72.9661 165.18 74.1943 167.235 75.0967C169.316 75.999 171.534 76.4502 173.89 76.4502C175.244 76.4502 176.56 76.2873 177.838 75.9614C179.116 75.6356 180.332 75.1844 181.485 74.6079V59.2681H191.899V80.5483ZM215.135 76.1494C215.536 76.2747 215.937 76.3625 216.338 76.4126C216.739 76.4377 217.14 76.4502 217.541 76.4502C218.544 76.4502 219.509 76.3123 220.436 76.0366C221.363 75.7609 222.228 75.3724 223.03 74.8711C223.857 74.3447 224.584 73.7181 225.211 72.9912C225.863 72.2393 226.389 71.4121 226.79 70.5098L234.31 78.0669C233.357 79.4204 232.254 80.6361 231.001 81.7139C229.773 82.7917 228.432 83.7065 226.978 84.4585C225.549 85.2104 224.033 85.7744 222.429 86.1504C220.85 86.5514 219.22 86.752 217.541 86.752C214.709 86.752 212.039 86.2256 209.533 85.1729C207.051 84.1201 204.871 82.6538 202.991 80.7739C201.136 78.894 199.67 76.6632 198.592 74.0815C197.514 71.4748 196.975 68.6174 196.975 65.5093C196.975 62.326 197.514 59.4185 198.592 56.7866C199.67 54.1548 201.136 51.9115 202.991 50.0566C204.871 48.2018 207.051 46.7606 209.533 45.7329C212.039 44.7052 214.709 44.1914 217.541 44.1914C219.22 44.1914 220.862 44.3919 222.466 44.793C224.07 45.194 225.587 45.7705 227.016 46.5225C228.469 47.2744 229.823 48.2018 231.076 49.3047C232.329 50.3825 233.432 51.5981 234.385 52.9517L215.135 76.1494ZM220.398 54.9819C219.922 54.8065 219.446 54.6937 218.97 54.6436C218.519 54.5934 218.042 54.5684 217.541 54.5684C216.137 54.5684 214.809 54.8315 213.556 55.3579C212.327 55.8592 211.25 56.5861 210.322 57.5386C209.42 58.491 208.706 59.644 208.179 60.9976C207.653 62.326 207.39 63.8299 207.39 65.5093C207.39 65.8853 207.402 66.3114 207.427 66.7876C207.477 67.2638 207.54 67.7526 207.615 68.2539C207.715 68.7301 207.828 69.1938 207.954 69.645C208.079 70.0962 208.242 70.4972 208.442 70.8481L220.398 54.9819Z" fill="#525359"/>
<path d="M259.763 86C257.282 86 254.951 85.5363 252.77 84.6089C250.589 83.6564 248.672 82.3656 247.018 80.7363C245.388 79.082 244.097 77.1646 243.145 74.9839C242.218 72.8032 241.754 70.4722 241.754 67.9907V56.0347H236.753V45.8081H241.754V29.7163H251.98V45.8081H267.546V56.0347H251.98V67.9907C251.98 69.0685 252.181 70.0837 252.582 71.0361C252.983 71.9635 253.535 72.7782 254.236 73.48C254.938 74.1818 255.765 74.7458 256.718 75.1719C257.67 75.5729 258.685 75.7734 259.763 75.7734H267.546V86H259.763ZM312.25 65.5093C312.25 68.5171 311.711 71.3244 310.633 73.9312C309.555 76.5129 308.089 78.7562 306.234 80.6611C304.379 82.541 302.198 84.0324 299.692 85.1353C297.21 86.2131 294.541 86.752 291.684 86.752C288.851 86.752 286.182 86.2131 283.675 85.1353C281.194 84.0324 279.013 82.541 277.133 80.6611C275.278 78.7562 273.812 76.5129 272.734 73.9312C271.657 71.3244 271.118 68.5171 271.118 65.5093C271.118 62.4513 271.657 59.619 272.734 57.0122C273.812 54.4054 275.278 52.1621 277.133 50.2822C279.013 48.3773 281.194 46.8859 283.675 45.8081C286.182 44.7303 288.851 44.1914 291.684 44.1914C294.541 44.1914 297.21 44.7052 299.692 45.7329C302.198 46.7355 304.379 48.1768 306.234 50.0566C308.089 51.9115 309.555 54.1548 310.633 56.7866C311.711 59.3934 312.25 62.3009 312.25 65.5093ZM301.91 65.5093C301.91 63.855 301.634 62.3636 301.083 61.0352C300.557 59.6816 299.83 58.5286 298.902 57.5762C297.975 56.5986 296.885 55.8592 295.631 55.3579C294.403 54.8315 293.087 54.5684 291.684 54.5684C290.28 54.5684 288.951 54.8315 287.698 55.3579C286.47 55.8592 285.392 56.5986 284.465 57.5762C283.562 58.5286 282.848 59.6816 282.322 61.0352C281.795 62.3636 281.532 63.855 281.532 65.5093C281.532 67.0633 281.795 68.5046 282.322 69.833C282.848 71.1615 283.562 72.3145 284.465 73.292C285.392 74.2695 286.47 75.0465 287.698 75.623C288.951 76.1745 290.28 76.4502 291.684 76.4502C293.087 76.4502 294.403 76.187 295.631 75.6606C296.885 75.1343 297.975 74.3949 298.902 73.4424C299.83 72.4899 300.557 71.3369 301.083 69.9834C301.634 68.6299 301.91 67.1385 301.91 65.5093ZM347.516 81.3003C346.689 82.0522 345.799 82.7666 344.847 83.4434C343.919 84.0951 342.942 84.6715 341.914 85.1729C340.886 85.6491 339.821 86.0251 338.718 86.3008C337.64 86.6016 336.538 86.752 335.41 86.752C332.928 86.752 330.597 86.3133 328.417 85.436C326.236 84.5588 324.318 83.318 322.664 81.7139C321.035 80.0846 319.744 78.117 318.792 75.811C317.864 73.48 317.4 70.8732 317.4 67.9907V45.7329H327.627V67.9907C327.627 69.3442 327.827 70.5599 328.229 71.6377C328.655 72.6904 329.219 73.5802 329.92 74.3071C330.622 75.034 331.437 75.5854 332.364 75.9614C333.317 76.3374 334.332 76.5254 335.41 76.5254C336.462 76.5254 337.452 76.2873 338.38 75.811C339.332 75.3097 340.16 74.658 340.861 73.856C341.563 73.0539 342.115 72.1515 342.516 71.1489C342.917 70.1213 343.117 69.0685 343.117 67.9907V45.7329H353.381V86H350.9L347.516 81.3003ZM371.503 86H361.239V45.7329H363.721L367.104 50.5078C368.759 49.0039 370.639 47.8509 372.744 47.0488C374.85 46.2217 377.03 45.8081 379.286 45.8081H388.347V56.0347H379.286C378.208 56.0347 377.193 56.2352 376.241 56.6362C375.288 57.0373 374.461 57.5887 373.759 58.2905C373.057 58.9924 372.506 59.8195 372.105 60.772C371.704 61.7244 371.503 62.7396 371.503 63.8174V86Z" fill="#42ABA7"/>
<path d="M19.0081 66.4348L19.0082 66.4347C19.9057 65.5872 21.1168 65.1154 22.3747 65.1154H60.4968V58.0385H48.1719C45.5619 58.0385 43.397 56.0326 43.397 53.5V21.1923C43.397 18.6597 45.5619 16.6538 48.1719 16.6538H60.4968V5.03846C60.4968 2.50588 62.6617 0.5 65.2718 0.5H82.3717C84.9817 0.5 87.1466 2.50588 87.1466 5.03846V16.6538H122.468C123.725 16.6538 124.937 17.1257 125.834 17.9732L142.934 34.1271C144.812 35.9014 144.812 38.7909 142.934 40.5656L142.934 40.5656L125.834 56.7195L125.834 56.7196C124.937 57.5667 123.725 58.0385 122.468 58.0385H87.1466V65.1154H99.4715C102.082 65.1154 104.247 67.1213 104.247 69.6538V101.962C104.247 104.494 102.082 106.5 99.4715 106.5H86.6466H60.9968H22.3747C21.1172 106.5 19.9062 106.028 19.0086 105.181L19.0085 105.181L1.90866 89.0268C0.0303955 87.2524 0.0304718 84.363 1.90862 82.5883L2.25201 82.9517L1.90866 82.5882L19.0081 66.4348ZM61.4968 65.6154V66.1154H60.9968H22.3747C21.3643 66.1154 20.4011 66.4948 19.6947 67.1618L2.59541 83.3151C1.13481 84.6953 1.13489 86.9201 2.59537 88.2998L19.6951 104.454C20.4016 105.121 21.3648 105.5 22.3747 105.5H60.9968H86.6466H99.4715C101.584 105.5 103.247 103.889 103.247 101.962V69.6538C103.247 67.7263 101.584 66.1154 99.4715 66.1154H86.6466H86.1466V65.6154V57.5385V57.0385H86.6466H122.468C123.478 57.0385 124.441 56.659 125.147 55.9925C125.147 55.9925 125.147 55.9925 125.147 55.9925L142.247 39.8387C143.708 38.4586 143.708 36.2337 142.247 34.854L125.147 18.7002C124.441 18.0333 123.478 17.6538 122.468 17.6538H86.6466H86.1466V17.1538V5.03846C86.1466 3.11096 84.4837 1.5 82.3717 1.5H65.2718C63.1597 1.5 61.4968 3.11096 61.4968 5.03846V17.1538V17.6538H60.9968H48.1719C46.0598 17.6538 44.397 19.2648 44.397 21.1923V53.5C44.397 55.4275 46.0598 57.0385 48.1719 57.0385H60.9968H61.4968V57.5385V65.6154ZM78.0967 8.57692H78.5967V9.07692V17.1538V17.6538H78.0967H69.5468H69.0468V17.1538V9.07692V8.57692H69.5468H78.0967ZM133.865 36.9827L134.25 37.3462L133.865 37.7096L121.041 49.825L120.896 49.9615H120.697H52.4469H51.9469V49.4615V25.2308V24.7308H52.4469H120.697H120.896L121.041 24.8673L133.865 36.9827ZM78.0967 57.0385H78.5967V57.5385V65.6154V66.1154H78.0967H69.5468H69.0468V65.6154V57.5385V57.0385H69.5468H78.0967ZM24.1454 98.4231H23.9466L23.802 98.2865L10.9776 86.1712L10.5928 85.8077L10.9776 85.4442L23.8025 73.3288L23.947 73.1923H24.1458H95.1966H95.6966V73.6923V97.9231V98.4231H95.1966H24.1454Z" fill="#42ABA7" stroke="#42ABA7"/>
</svg>
