<svg width="399" height="107" viewBox="0 0 399 107" fill="none" xmlns="http://www.w3.org/2000/svg">
<path d="M200.899 78.5483C198.393 80.6789 195.598 82.3206 192.515 83.4736C189.432 84.6016 186.224 85.1655 182.89 85.1655C180.333 85.1655 177.865 84.8271 175.483 84.1504C173.127 83.4987 170.922 82.5713 168.866 81.3682C166.811 80.14 164.931 78.6862 163.227 77.0068C161.522 75.3024 160.068 73.4225 158.865 71.3672C157.662 69.2868 156.722 67.056 156.045 64.6748C155.394 62.2936 155.068 59.8247 155.068 57.2681C155.068 54.7114 155.394 52.255 156.045 49.8989C156.722 47.5428 157.662 45.3371 158.865 43.2817C160.068 41.2013 161.522 39.3215 163.227 37.6421C164.931 35.9377 166.811 34.4839 168.866 33.2808C170.922 32.0776 173.127 31.1502 175.483 30.4985C177.865 29.8218 180.333 29.4834 182.89 29.4834C186.224 29.4834 189.432 30.0599 192.515 31.2129C195.598 32.3408 198.393 33.9701 200.899 36.1006L195.26 45.5C193.631 43.8457 191.751 42.5549 189.62 41.6274C187.49 40.675 185.246 40.1987 182.89 40.1987C180.534 40.1987 178.316 40.6499 176.235 41.5522C174.18 42.4546 172.375 43.6828 170.821 45.2368C169.267 46.7658 168.039 48.5705 167.137 50.6509C166.234 52.7062 165.783 54.9119 165.783 57.2681C165.783 59.6493 166.234 61.88 167.137 63.9604C168.039 66.0409 169.267 67.8581 170.821 69.4121C172.375 70.9661 174.18 72.1943 176.235 73.0967C178.316 73.999 180.534 74.4502 182.89 74.4502C184.244 74.4502 185.56 74.2873 186.838 73.9614C188.116 73.6356 189.332 73.1844 190.485 72.6079V57.2681H200.899V78.5483ZM224.135 74.1494C224.536 74.2747 224.937 74.3625 225.338 74.4126C225.739 74.4377 226.14 74.4502 226.541 74.4502C227.544 74.4502 228.509 74.3123 229.436 74.0366C230.363 73.7609 231.228 73.3724 232.03 72.8711C232.857 72.3447 233.584 71.7181 234.211 70.9912C234.863 70.2393 235.389 69.4121 235.79 68.5098L243.31 76.0669C242.357 77.4204 241.254 78.6361 240.001 79.7139C238.773 80.7917 237.432 81.7065 235.978 82.4585C234.549 83.2104 233.033 83.7744 231.429 84.1504C229.85 84.5514 228.22 84.752 226.541 84.752C223.709 84.752 221.039 84.2256 218.533 83.1729C216.051 82.1201 213.871 80.6538 211.991 78.7739C210.136 76.894 208.67 74.6632 207.592 72.0815C206.514 69.4748 205.975 66.6174 205.975 63.5093C205.975 60.326 206.514 57.4185 207.592 54.7866C208.67 52.1548 210.136 49.9115 211.991 48.0566C213.871 46.2018 216.051 44.7606 218.533 43.7329C221.039 42.7052 223.709 42.1914 226.541 42.1914C228.22 42.1914 229.862 42.3919 231.466 42.793C233.07 43.194 234.587 43.7705 236.016 44.5225C237.469 45.2744 238.823 46.2018 240.076 47.3047C241.329 48.3825 242.432 49.5981 243.385 50.9517L224.135 74.1494ZM229.398 52.9819C228.922 52.8065 228.446 52.6937 227.97 52.6436C227.519 52.5934 227.042 52.5684 226.541 52.5684C225.137 52.5684 223.809 52.8315 222.556 53.3579C221.327 53.8592 220.25 54.5861 219.322 55.5386C218.42 56.491 217.706 57.644 217.179 58.9976C216.653 60.326 216.39 61.8299 216.39 63.5093C216.39 63.8853 216.402 64.3114 216.427 64.7876C216.477 65.2638 216.54 65.7526 216.615 66.2539C216.715 66.7301 216.828 67.1938 216.954 67.645C217.079 68.0962 217.242 68.4972 217.442 68.8481L229.398 52.9819ZM268.763 84C266.282 84 263.951 83.5363 261.77 82.6089C259.589 81.6564 257.672 80.3656 256.018 78.7363C254.388 77.082 253.097 75.1646 252.145 72.9839C251.218 70.8032 250.754 68.4722 250.754 65.9907V54.0347H245.753V43.8081H250.754V27.7163H260.98V43.8081H276.546V54.0347H260.98V65.9907C260.98 67.0685 261.181 68.0837 261.582 69.0361C261.983 69.9635 262.535 70.7782 263.236 71.48C263.938 72.1818 264.765 72.7458 265.718 73.1719C266.67 73.5729 267.685 73.7734 268.763 73.7734H276.546V84H268.763ZM321.25 63.5093C321.25 66.5171 320.711 69.3244 319.633 71.9312C318.555 74.5129 317.089 76.7562 315.234 78.6611C313.379 80.541 311.198 82.0324 308.692 83.1353C306.21 84.2131 303.541 84.752 300.684 84.752C297.851 84.752 295.182 84.2131 292.675 83.1353C290.194 82.0324 288.013 80.541 286.133 78.6611C284.278 76.7562 282.812 74.5129 281.734 71.9312C280.657 69.3244 280.118 66.5171 280.118 63.5093C280.118 60.4513 280.657 57.619 281.734 55.0122C282.812 52.4054 284.278 50.1621 286.133 48.2822C288.013 46.3773 290.194 44.8859 292.675 43.8081C295.182 42.7303 297.851 42.1914 300.684 42.1914C303.541 42.1914 306.21 42.7052 308.692 43.7329C311.198 44.7355 313.379 46.1768 315.234 48.0566C317.089 49.9115 318.555 52.1548 319.633 54.7866C320.711 57.3934 321.25 60.3009 321.25 63.5093ZM310.91 63.5093C310.91 61.855 310.634 60.3636 310.083 59.0352C309.557 57.6816 308.83 56.5286 307.902 55.5762C306.975 54.5986 305.885 53.8592 304.631 53.3579C303.403 52.8315 302.087 52.5684 300.684 52.5684C299.28 52.5684 297.951 52.8315 296.698 53.3579C295.47 53.8592 294.392 54.5986 293.465 55.5762C292.562 56.5286 291.848 57.6816 291.322 59.0352C290.795 60.3636 290.532 61.855 290.532 63.5093C290.532 65.0633 290.795 66.5046 291.322 67.833C291.848 69.1615 292.562 70.3145 293.465 71.292C294.392 72.2695 295.47 73.0465 296.698 73.623C297.951 74.1745 299.28 74.4502 300.684 74.4502C302.087 74.4502 303.403 74.187 304.631 73.6606C305.885 73.1343 306.975 72.3949 307.902 71.4424C308.83 70.4899 309.557 69.3369 310.083 67.9834C310.634 66.6299 310.91 65.1385 310.91 63.5093ZM356.516 79.3003C355.689 80.0522 354.799 80.7666 353.847 81.4434C352.919 82.0951 351.942 82.6715 350.914 83.1729C349.886 83.6491 348.821 84.0251 347.718 84.3008C346.64 84.6016 345.538 84.752 344.41 84.752C341.928 84.752 339.597 84.3133 337.417 83.436C335.236 82.5588 333.318 81.318 331.664 79.7139C330.035 78.0846 328.744 76.117 327.792 73.811C326.864 71.48 326.4 68.8732 326.4 65.9907V43.7329H336.627V65.9907C336.627 67.3442 336.827 68.5599 337.229 69.6377C337.655 70.6904 338.219 71.5802 338.92 72.3071C339.622 73.034 340.437 73.5854 341.364 73.9614C342.317 74.3374 343.332 74.5254 344.41 74.5254C345.462 74.5254 346.452 74.2873 347.38 73.811C348.332 73.3097 349.16 72.658 349.861 71.856C350.563 71.0539 351.115 70.1515 351.516 69.1489C351.917 68.1213 352.117 67.0685 352.117 65.9907V43.7329H362.381V84H359.9L356.516 79.3003ZM380.503 84H370.239V43.7329H372.721L376.104 48.5078C377.759 47.0039 379.639 45.8509 381.744 45.0488C383.85 44.2217 386.03 43.8081 388.286 43.8081H397.347V54.0347H388.286C387.208 54.0347 386.193 54.2352 385.241 54.6362C384.288 55.0373 383.461 55.5887 382.759 56.2905C382.057 56.9924 381.506 57.8195 381.105 58.772C380.704 59.7244 380.503 60.7396 380.503 61.8174V84Z" fill="white"/>
<path d="M19.0935 66.7411L19.0936 66.741C19.9949 65.89 21.211 65.4162 22.4742 65.4162H60.7761V58.3017H48.3915C45.7705 58.3017 43.5967 56.2874 43.5967 53.7444V21.2863C43.5967 18.7433 45.7705 16.729 48.3915 16.729H60.7761V5.05726C60.7761 2.5143 62.95 0.5 65.571 0.5H82.7505C85.3715 0.5 87.5453 2.5143 87.5453 5.05726V16.729H123.033C124.296 16.729 125.513 17.2029 126.414 18.054L143.593 34.283C145.479 36.0647 145.479 38.966 143.593 40.7481L143.593 40.7481L126.414 56.9772L126.414 56.9772C125.513 57.8279 124.296 58.3017 123.033 58.3017H87.5453V65.4162H99.93C102.551 65.4162 104.725 67.4305 104.725 69.9734V102.432C104.725 104.974 102.551 106.989 99.93 106.989H87.0453H61.2761H22.4742C21.2114 106.989 19.9953 106.515 19.0941 105.664L19.094 105.664L1.91449 89.4348C0.0284576 87.6532 0.0285339 84.7518 1.91444 82.9698L2.24336 83.3179L1.91449 82.9697L19.0935 66.7411ZM61.7761 65.9162V66.4162H61.2761H22.4742C21.4586 66.4162 20.4903 66.7976 19.7802 67.4681L2.60124 83.6966C1.13287 85.0841 1.13293 87.3209 2.6012 88.7079L19.7806 104.937C19.7806 104.937 19.7806 104.937 19.7807 104.937C20.4908 105.607 21.4591 105.989 22.4742 105.989H61.2761H87.0453H99.93C102.053 105.989 103.725 104.369 103.725 102.432V69.9734C103.725 68.0356 102.053 66.4162 99.93 66.4162H87.0453H86.5453V65.9162V57.8017V57.3017H87.0453H123.033C124.049 57.3017 125.017 56.9202 125.727 56.2501L142.906 40.0212C144.375 38.6337 144.375 36.397 142.906 35.0099L125.727 18.7809C125.017 18.1105 124.049 17.729 123.033 17.729H87.0453H86.5453V17.229V5.05726C86.5453 3.11938 84.8736 1.5 82.7505 1.5H65.571C63.4479 1.5 61.7761 3.11938 61.7761 5.05726V17.229V17.729H61.2761H48.3915C46.2685 17.729 44.5967 19.3484 44.5967 21.2863V53.7444C44.5967 55.6823 46.2685 57.3017 48.3915 57.3017H61.2761H61.7761V57.8017V65.9162ZM78.4556 8.61452H78.9556V9.11452V17.229V17.729H78.4556H69.8659H69.3659V17.229V9.11452V8.61452H69.8659H78.4556ZM134.482 37.1519L134.867 37.5154L134.482 37.8788L121.598 50.0506L121.453 50.1871H121.254H71.1233L78.799 57.4382L78.9556 57.5862V57.8017V65.9162V66.4162H78.4556H69.8659H69.3659V65.9162V50.1871H52.6864H52.1864V49.6871V25.3436V24.8436H52.6864H121.254H121.453L121.598 24.9801L134.482 37.1519ZM24.2531 98.8743H24.0543L23.9098 98.7377L11.0256 86.5659L10.6409 86.2025L11.0256 85.839L23.9102 73.6672L24.0548 73.5307H24.2536H95.6351H96.1351V74.0307V98.3743V98.8743H95.6351H24.2531Z" fill="white" stroke="white"/>
</svg>
