<svg width="364" height="93" viewBox="0 0 364 93" fill="none" xmlns="http://www.w3.org/2000/svg">
<path d="M15.1638 56.7918L15.1639 56.7917C15.8919 56.0634 16.8791 55.6538 17.9091 55.6538H47.9623V49.8846H38.3168C36.1724 49.8846 34.4349 48.1447 34.4349 46V18.9231C34.4349 16.7784 36.1724 15.0385 38.3168 15.0385H47.9623V5.38462C47.9623 3.23991 49.6998 1.5 51.8442 1.5H65.3715C67.5159 1.5 69.2534 3.23991 69.2534 5.38462V15.0385H97.0909C98.1205 15.0385 99.1081 15.448 99.8359 16.1764L113.363 29.7149C114.879 31.2318 114.879 33.6913 113.363 35.2085L113.363 35.2086L99.8359 48.747L99.8358 48.7471C99.108 49.4751 98.1205 49.8846 97.0909 49.8846H69.2534V55.6538H78.8989C81.0432 55.6538 82.7807 57.3938 82.7807 59.5385V86.6154C82.7807 88.7601 81.0432 90.5 78.8989 90.5H68.7534H48.4623H17.9091C16.8794 90.5 15.8923 90.0904 15.1642 89.3622L15.1641 89.3621L1.63676 75.8236C0.121056 74.3067 0.121117 71.8472 1.63671 70.33L1.63676 70.3299L15.1638 56.7918ZM48.9623 56.1538V56.6538H48.4623H17.9091C17.1447 56.6538 16.4119 56.9578 15.8711 57.4987L2.3442 71.0367C2.34418 71.0367 2.34417 71.0367 2.34415 71.0367C1.21857 72.1636 1.21865 73.9904 2.34415 75.1168L15.8714 88.6552C15.8714 88.6552 15.8715 88.6552 15.8715 88.6553C16.4123 89.1961 17.1451 89.5 17.9091 89.5H48.4623H68.7534H78.8989C80.4901 89.5 81.7807 88.2086 81.7807 86.6154V59.5385C81.7807 57.9452 80.4901 56.6538 78.8989 56.6538H68.7534H68.2534V56.1538V49.3846V48.8846H68.7534H97.0909C97.855 48.8846 98.5882 48.5807 99.1286 48.0401L112.656 34.5018C112.656 34.5018 112.656 34.5018 112.656 34.5017C113.781 33.3749 113.781 31.5481 112.656 30.4217L99.1285 16.8832C98.5881 16.3424 97.855 16.0385 97.0909 16.0385H68.7534H68.2534V15.5385V5.38462C68.2534 3.79135 66.9627 2.5 65.3715 2.5H51.8442C50.2529 2.5 48.9623 3.79135 48.9623 5.38462V15.5385V16.0385H48.4623H38.3168C36.7255 16.0385 35.4349 17.3298 35.4349 18.9231V46C35.4349 47.5933 36.7255 48.8846 38.3168 48.8846H48.4623H48.9623V49.3846V56.1538ZM61.9897 8.26923H62.4897V8.76923V15.5385V16.0385H61.9897H55.226H54.726V15.5385V8.76923V8.26923H55.226H61.9897ZM104.189 32.1082L104.542 32.4615L104.189 32.8149L96.0438 40.9688L95.8974 41.1154H95.6901H41.6986H41.1986V40.6154V24.3077V23.8077H41.6986H95.6901H95.8974L96.0438 23.9543L104.189 32.1082ZM61.9897 48.8846H62.4897V49.3846V56.1538V56.6538H61.9897H55.226H54.726V56.1538V49.3846V48.8846H55.226H61.9897ZM19.3099 81.7308H19.1026L18.9561 81.5841L10.8109 73.4303L10.4579 73.0769L10.8109 72.7236L18.9565 64.5697L19.1029 64.4231H19.3102H75.517H76.017V64.9231V81.2308V81.7308H75.517H19.3099Z" fill="#42ABA7" stroke="#42ABA7"/>
<path d="M171.655 68.6899C169.214 70.7651 166.492 72.3643 163.489 73.4873C160.486 74.5859 157.361 75.1353 154.114 75.1353C151.624 75.1353 149.219 74.8057 146.899 74.1465C144.604 73.5117 142.456 72.6084 140.454 71.4365C138.452 70.2402 136.621 68.8242 134.961 67.1885C133.301 65.5283 131.885 63.6973 130.713 61.6953C129.541 59.6689 128.625 57.4961 127.966 55.1768C127.332 52.8574 127.014 50.4526 127.014 47.9624C127.014 45.4722 127.332 43.0796 127.966 40.7847C128.625 38.4897 129.541 36.3413 130.713 34.3394C131.885 32.313 133.301 30.4819 134.961 28.8462C136.621 27.186 138.452 25.77 140.454 24.5981C142.456 23.4263 144.604 22.5229 146.899 21.8882C149.219 21.229 151.624 20.8994 154.114 20.8994C157.361 20.8994 160.486 21.4609 163.489 22.584C166.492 23.6826 169.214 25.2695 171.655 27.3447L166.162 36.5C164.575 34.8887 162.744 33.6313 160.669 32.728C158.594 31.8003 156.409 31.3364 154.114 31.3364C151.819 31.3364 149.658 31.7759 147.632 32.6548C145.63 33.5337 143.872 34.73 142.358 36.2437C140.845 37.7329 139.648 39.4907 138.77 41.5171C137.891 43.519 137.451 45.6675 137.451 47.9624C137.451 50.2817 137.891 52.4546 138.77 54.481C139.648 56.5073 140.845 58.2773 142.358 59.791C143.872 61.3047 145.63 62.501 147.632 63.3799C149.658 64.2588 151.819 64.6982 154.114 64.6982C155.432 64.6982 156.714 64.5396 157.959 64.2222C159.204 63.9048 160.388 63.4653 161.511 62.9038V47.9624H171.655V68.6899ZM194.287 64.4053C194.678 64.5273 195.068 64.6128 195.459 64.6616C195.85 64.686 196.24 64.6982 196.631 64.6982C197.607 64.6982 198.547 64.564 199.451 64.2954C200.354 64.0269 201.196 63.6484 201.978 63.1602C202.783 62.6475 203.491 62.0371 204.102 61.3291C204.736 60.5967 205.249 59.791 205.64 58.9121L212.964 66.2729C212.036 67.5913 210.962 68.7754 209.741 69.8252C208.545 70.875 207.239 71.7661 205.823 72.4985C204.431 73.231 202.954 73.7803 201.392 74.1465C199.854 74.5371 198.267 74.7324 196.631 74.7324C193.872 74.7324 191.272 74.2197 188.831 73.1943C186.414 72.1689 184.29 70.7407 182.458 68.9097C180.652 67.0786 179.224 64.9058 178.174 62.3911C177.124 59.8521 176.599 57.0688 176.599 54.0415C176.599 50.9409 177.124 48.1089 178.174 45.5454C179.224 42.9819 180.652 40.7969 182.458 38.9902C184.29 37.1836 186.414 35.7798 188.831 34.7788C191.272 33.7778 193.872 33.2773 196.631 33.2773C198.267 33.2773 199.866 33.4727 201.428 33.8633C202.991 34.2539 204.468 34.8154 205.859 35.5479C207.275 36.2803 208.594 37.1836 209.814 38.2578C211.035 39.3076 212.109 40.4917 213.037 41.8101L194.287 64.4053ZM199.414 43.7876C198.95 43.6167 198.486 43.5068 198.022 43.458C197.583 43.4092 197.119 43.3848 196.631 43.3848C195.264 43.3848 193.97 43.6411 192.749 44.1538C191.553 44.6421 190.503 45.3501 189.6 46.2778C188.721 47.2056 188.025 48.3286 187.512 49.647C187 50.9409 186.743 52.4058 186.743 54.0415C186.743 54.4077 186.755 54.8228 186.78 55.2866C186.829 55.7505 186.89 56.2266 186.963 56.7148C187.061 57.1787 187.17 57.6304 187.292 58.0698C187.415 58.5093 187.573 58.8999 187.769 59.2417L199.414 43.7876Z" fill="#525359"/>
<path d="M237.756 74C235.339 74 233.069 73.5483 230.945 72.645C228.821 71.7173 226.953 70.46 225.342 68.873C223.755 67.2617 222.498 65.394 221.57 63.27C220.667 61.146 220.215 58.8755 220.215 56.4585V44.813H215.344V34.8521H220.215V19.1782H230.176V34.8521H245.337V44.813H230.176V56.4585C230.176 57.5083 230.371 58.4971 230.762 59.4248C231.152 60.3281 231.689 61.1216 232.373 61.8052C233.057 62.4888 233.862 63.0381 234.79 63.4531C235.718 63.8438 236.707 64.0391 237.756 64.0391H245.337V74H237.756ZM288.879 54.0415C288.879 56.9712 288.354 59.7056 287.305 62.2446C286.255 64.7593 284.827 66.9443 283.02 68.7998C281.213 70.6309 279.089 72.0835 276.648 73.1577C274.231 74.2075 271.631 74.7324 268.848 74.7324C266.089 74.7324 263.489 74.2075 261.047 73.1577C258.63 72.0835 256.506 70.6309 254.675 68.7998C252.869 66.9443 251.44 64.7593 250.391 62.2446C249.341 59.7056 248.816 56.9712 248.816 54.0415C248.816 51.063 249.341 48.3042 250.391 45.7651C251.44 43.2261 252.869 41.041 254.675 39.21C256.506 37.3545 258.63 35.9019 261.047 34.8521C263.489 33.8022 266.089 33.2773 268.848 33.2773C271.631 33.2773 274.231 33.7778 276.648 34.7788C279.089 35.7554 281.213 37.1592 283.02 38.9902C284.827 40.7969 286.255 42.9819 287.305 45.5454C288.354 48.0845 288.879 50.9165 288.879 54.0415ZM278.809 54.0415C278.809 52.4302 278.54 50.9775 278.003 49.6836C277.49 48.3652 276.782 47.2422 275.879 46.3145C274.976 45.3623 273.914 44.6421 272.693 44.1538C271.497 43.6411 270.215 43.3848 268.848 43.3848C267.48 43.3848 266.187 43.6411 264.966 44.1538C263.77 44.6421 262.72 45.3623 261.816 46.3145C260.938 47.2422 260.242 48.3652 259.729 49.6836C259.216 50.9775 258.96 52.4302 258.96 54.0415C258.96 55.5552 259.216 56.959 259.729 58.2529C260.242 59.5469 260.938 60.6699 261.816 61.6221C262.72 62.5742 263.77 63.3311 264.966 63.8926C266.187 64.4297 267.48 64.6982 268.848 64.6982C270.215 64.6982 271.497 64.4419 272.693 63.9292C273.914 63.4165 274.976 62.6963 275.879 61.7686C276.782 60.8408 277.49 59.7178 278.003 58.3994C278.54 57.0811 278.809 55.6284 278.809 54.0415ZM323.23 69.4224C322.424 70.1548 321.558 70.8506 320.63 71.5098C319.727 72.1445 318.774 72.7061 317.773 73.1943C316.772 73.6582 315.735 74.0244 314.661 74.293C313.611 74.5859 312.537 74.7324 311.438 74.7324C309.021 74.7324 306.75 74.3052 304.626 73.4507C302.502 72.5962 300.635 71.3877 299.023 69.8252C297.437 68.2383 296.179 66.3218 295.251 64.0757C294.348 61.8052 293.896 59.2661 293.896 56.4585V34.7788H303.857V56.4585C303.857 57.7769 304.053 58.9609 304.443 60.0107C304.858 61.0361 305.408 61.9028 306.091 62.6108C306.775 63.3188 307.568 63.856 308.472 64.2222C309.399 64.5884 310.388 64.7715 311.438 64.7715C312.463 64.7715 313.428 64.5396 314.331 64.0757C315.259 63.5874 316.064 62.9526 316.748 62.1714C317.432 61.3901 317.969 60.5112 318.359 59.5347C318.75 58.5337 318.945 57.5083 318.945 56.4585V34.7788H328.943V74H326.526L323.23 69.4224ZM346.594 74H336.597V34.7788H339.014L342.31 39.4297C343.921 37.9648 345.752 36.8418 347.803 36.0605C349.854 35.2549 351.978 34.8521 354.175 34.8521H363V44.813H354.175C353.125 44.813 352.136 45.0083 351.208 45.3989C350.281 45.7896 349.475 46.3267 348.792 47.0103C348.108 47.6938 347.571 48.4995 347.18 49.4272C346.79 50.355 346.594 51.3438 346.594 52.3936V74Z" fill="#42ABA7"/>
</svg>
