<svg width="394" height="107" viewBox="0 0 394 107" fill="none" xmlns="http://www.w3.org/2000/svg">
<path d="M185.56 63.5093C185.56 62.1056 185.284 60.7521 184.732 59.4487C184.206 58.1203 183.479 56.9548 182.552 55.9521C181.624 54.9245 180.534 54.1099 179.281 53.5083C178.053 52.8817 176.737 52.5684 175.333 52.5684C173.929 52.5684 172.601 52.8065 171.348 53.2827C170.119 53.759 169.042 54.4608 168.114 55.3882C167.212 56.3156 166.498 57.4686 165.971 58.8472C165.445 60.2007 165.182 61.7547 165.182 63.5093C165.182 65.1886 165.445 66.7051 165.971 68.0586C166.498 69.387 167.212 70.5275 168.114 71.48C169.042 72.4325 170.119 73.1719 171.348 73.6982C172.601 74.1995 173.929 74.4502 175.333 74.4502C176.737 74.4502 178.053 74.1494 179.281 73.5479C180.534 72.9212 181.624 72.1066 182.552 71.104C183.479 70.0763 184.206 68.9108 184.732 67.6074C185.284 66.279 185.56 64.9129 185.56 63.5093ZM195.899 78.9243C195.899 81.7567 195.36 84.4136 194.282 86.895C193.204 89.3765 191.726 91.5446 189.846 93.3994C187.991 95.2542 185.81 96.7205 183.304 97.7983C180.822 98.8761 178.165 99.415 175.333 99.415L170.182 99.3398V89.0757L175.258 89.1509C176.862 89.1509 178.228 88.9378 179.356 88.5117C180.484 88.1107 181.436 87.5467 182.213 86.8198C182.99 86.118 183.604 85.3034 184.056 84.376C184.532 83.4486 184.908 82.471 185.184 81.4434C184.783 82.0951 184.206 82.634 183.454 83.0601C182.702 83.4611 181.862 83.7869 180.935 84.0376C180.033 84.3133 179.08 84.5013 178.078 84.6016C177.1 84.7018 176.185 84.752 175.333 84.752C172.501 84.752 169.831 84.2632 167.325 83.2856C164.843 82.3081 162.663 80.917 160.783 79.1123C158.928 77.2826 157.462 75.0518 156.384 72.4199C155.306 69.7881 154.767 66.8179 154.767 63.5093C154.767 60.4764 155.306 57.6566 156.384 55.0498C157.462 52.443 158.928 50.1872 160.783 48.2822C162.663 46.3773 164.843 44.8859 167.325 43.8081C169.831 42.7303 172.501 42.1914 175.333 42.1914C176.636 42.1914 177.927 42.3543 179.206 42.6802C180.484 43.006 181.725 43.4572 182.928 44.0337C184.131 44.6102 185.271 45.2869 186.349 46.064C187.452 46.841 188.48 47.6807 189.432 48.583L193.417 43.8081H195.899V78.9243ZM219.773 74.1494C220.174 74.2747 220.576 74.3625 220.977 74.4126C221.378 74.4377 221.779 74.4502 222.18 74.4502C223.182 74.4502 224.147 74.3123 225.075 74.0366C226.002 73.7609 226.867 73.3724 227.669 72.8711C228.496 72.3447 229.223 71.7181 229.85 70.9912C230.501 70.2393 231.028 69.4121 231.429 68.5098L238.948 76.0669C237.996 77.4204 236.893 78.6361 235.64 79.7139C234.411 80.7917 233.07 81.7065 231.617 82.4585C230.188 83.2104 228.672 83.7744 227.067 84.1504C225.488 84.5514 223.859 84.752 222.18 84.752C219.347 84.752 216.678 84.2256 214.171 83.1729C211.69 82.1201 209.509 80.6538 207.629 78.7739C205.775 76.894 204.308 74.6632 203.23 72.0815C202.153 69.4748 201.614 66.6174 201.614 63.5093C201.614 60.326 202.153 57.4185 203.23 54.7866C204.308 52.1548 205.775 49.9115 207.629 48.0566C209.509 46.2018 211.69 44.7606 214.171 43.7329C216.678 42.7052 219.347 42.1914 222.18 42.1914C223.859 42.1914 225.501 42.3919 227.105 42.793C228.709 43.194 230.226 43.7705 231.654 44.5225C233.108 45.2744 234.462 46.2018 235.715 47.3047C236.968 48.3825 238.071 49.5981 239.023 50.9517L219.773 74.1494ZM225.037 52.9819C224.561 52.8065 224.085 52.6937 223.608 52.6436C223.157 52.5934 222.681 52.5684 222.18 52.5684C220.776 52.5684 219.448 52.8315 218.194 53.3579C216.966 53.8592 215.888 54.5861 214.961 55.5386C214.059 56.491 213.344 57.644 212.818 58.9976C212.292 60.326 212.028 61.8299 212.028 63.5093C212.028 63.8853 212.041 64.3114 212.066 64.7876C212.116 65.2638 212.179 65.7526 212.254 66.2539C212.354 66.7301 212.467 67.1938 212.592 67.645C212.718 68.0962 212.881 68.4972 213.081 68.8481L225.037 52.9819ZM264.402 84C261.92 84 259.589 83.5363 257.409 82.6089C255.228 81.6564 253.311 80.3656 251.656 78.7363C250.027 77.082 248.736 75.1646 247.784 72.9839C246.856 70.8032 246.393 68.4722 246.393 65.9907V54.0347H241.392V43.8081H246.393V27.7163H256.619V43.8081H272.185V54.0347H256.619V65.9907C256.619 67.0685 256.82 68.0837 257.221 69.0361C257.622 69.9635 258.173 70.7782 258.875 71.48C259.577 72.1818 260.404 72.7458 261.356 73.1719C262.309 73.5729 263.324 73.7734 264.402 73.7734H272.185V84H264.402ZM316.888 63.5093C316.888 66.5171 316.349 69.3244 315.271 71.9312C314.194 74.5129 312.727 76.7562 310.873 78.6611C309.018 80.541 306.837 82.0324 304.331 83.1353C301.849 84.2131 299.18 84.752 296.322 84.752C293.49 84.752 290.82 84.2131 288.314 83.1353C285.833 82.0324 283.652 80.541 281.772 78.6611C279.917 76.7562 278.451 74.5129 277.373 71.9312C276.295 69.3244 275.756 66.5171 275.756 63.5093C275.756 60.4513 276.295 57.619 277.373 55.0122C278.451 52.4054 279.917 50.1621 281.772 48.2822C283.652 46.3773 285.833 44.8859 288.314 43.8081C290.82 42.7303 293.49 42.1914 296.322 42.1914C299.18 42.1914 301.849 42.7052 304.331 43.7329C306.837 44.7355 309.018 46.1768 310.873 48.0566C312.727 49.9115 314.194 52.1548 315.271 54.7866C316.349 57.3934 316.888 60.3009 316.888 63.5093ZM306.549 63.5093C306.549 61.855 306.273 60.3636 305.722 59.0352C305.195 57.6816 304.468 56.5286 303.541 55.5762C302.614 54.5986 301.523 53.8592 300.27 53.3579C299.042 52.8315 297.726 52.5684 296.322 52.5684C294.919 52.5684 293.59 52.8315 292.337 53.3579C291.109 53.8592 290.031 54.5986 289.104 55.5762C288.201 56.5286 287.487 57.6816 286.96 59.0352C286.434 60.3636 286.171 61.855 286.171 63.5093C286.171 65.0633 286.434 66.5046 286.96 67.833C287.487 69.1615 288.201 70.3145 289.104 71.292C290.031 72.2695 291.109 73.0465 292.337 73.623C293.59 74.1745 294.919 74.4502 296.322 74.4502C297.726 74.4502 299.042 74.187 300.27 73.6606C301.523 73.1343 302.614 72.3949 303.541 71.4424C304.468 70.4899 305.195 69.3369 305.722 67.9834C306.273 66.6299 306.549 65.1385 306.549 63.5093ZM352.155 79.3003C351.328 80.0522 350.438 80.7666 349.485 81.4434C348.558 82.0951 347.58 82.6715 346.553 83.1729C345.525 83.6491 344.46 84.0251 343.357 84.3008C342.279 84.6016 341.176 84.752 340.048 84.752C337.567 84.752 335.236 84.3133 333.055 83.436C330.875 82.5588 328.957 81.318 327.303 79.7139C325.674 78.0846 324.383 76.117 323.43 73.811C322.503 71.48 322.039 68.8732 322.039 65.9907V43.7329H332.266V65.9907C332.266 67.3442 332.466 68.5599 332.867 69.6377C333.293 70.6904 333.857 71.5802 334.559 72.3071C335.261 73.034 336.076 73.5854 337.003 73.9614C337.955 74.3374 338.971 74.5254 340.048 74.5254C341.101 74.5254 342.091 74.2873 343.019 73.811C343.971 73.3097 344.798 72.658 345.5 71.856C346.202 71.0539 346.753 70.1515 347.154 69.1489C347.555 68.1213 347.756 67.0685 347.756 65.9907V43.7329H358.02V84H355.539L352.155 79.3003ZM376.142 84H365.878V43.7329H368.359L371.743 48.5078C373.397 47.0039 375.277 45.8509 377.383 45.0488C379.488 44.2217 381.669 43.8081 383.925 43.8081H392.986V54.0347H383.925C382.847 54.0347 381.832 54.2352 380.879 54.6362C379.927 55.0373 379.1 55.5887 378.398 56.2905C377.696 56.9924 377.145 57.8195 376.744 58.772C376.343 59.7244 376.142 60.7396 376.142 61.8174V84Z" fill="white"/>
<path d="M19.0935 66.7411L19.0936 66.741C19.9949 65.89 21.211 65.4162 22.4742 65.4162H60.7761V58.3017H48.3915C45.7705 58.3017 43.5967 56.2874 43.5967 53.7444V21.2863C43.5967 18.7433 45.7705 16.729 48.3915 16.729H60.7761V5.05726C60.7761 2.5143 62.95 0.5 65.571 0.5H82.7505C85.3715 0.5 87.5453 2.5143 87.5453 5.05726V16.729H123.033C124.296 16.729 125.513 17.2029 126.414 18.054L143.593 34.283C145.479 36.0647 145.479 38.966 143.593 40.7481L143.593 40.7481L126.414 56.9772L126.414 56.9772C125.513 57.8279 124.296 58.3017 123.033 58.3017H87.5453V65.4162H99.93C102.551 65.4162 104.725 67.4305 104.725 69.9734V102.432C104.725 104.974 102.551 106.989 99.93 106.989H87.0453H61.2761H22.4742C21.2114 106.989 19.9953 106.515 19.0941 105.664L19.094 105.664L1.91449 89.4348C0.0284576 87.6532 0.0285339 84.7518 1.91444 82.9698L2.24336 83.3179L1.91449 82.9697L19.0935 66.7411ZM61.7761 65.9162V66.4162H61.2761H22.4742C21.4586 66.4162 20.4903 66.7976 19.7802 67.4681L2.60124 83.6966C1.13287 85.0841 1.13293 87.3209 2.6012 88.7079L19.7806 104.937C19.7806 104.937 19.7806 104.937 19.7807 104.937C20.4908 105.607 21.4591 105.989 22.4742 105.989H61.2761H87.0453H99.93C102.053 105.989 103.725 104.369 103.725 102.432V69.9734C103.725 68.0356 102.053 66.4162 99.93 66.4162H87.0453H86.5453V65.9162V57.8017V57.3017H87.0453H123.033C124.049 57.3017 125.017 56.9202 125.727 56.2501L142.906 40.0212C144.375 38.6337 144.375 36.397 142.906 35.0099L125.727 18.7809C125.017 18.1105 124.049 17.729 123.033 17.729H87.0453H86.5453V17.229V5.05726C86.5453 3.11938 84.8736 1.5 82.7505 1.5H65.571C63.4479 1.5 61.7761 3.11938 61.7761 5.05726V17.229V17.729H61.2761H48.3915C46.2685 17.729 44.5967 19.3484 44.5967 21.2863V53.7444C44.5967 55.6823 46.2685 57.3017 48.3915 57.3017H61.2761H61.7761V57.8017V65.9162ZM78.4556 8.61452H78.9556V9.11452V17.229V17.729H78.4556H69.8659H69.3659V17.229V9.11452V8.61452H69.8659H78.4556ZM134.482 37.1519L134.867 37.5154L134.482 37.8788L121.598 50.0506L121.453 50.1871H121.254H71.1233L78.799 57.4382L78.9556 57.5862V57.8017V65.9162V66.4162H78.4556H69.8659H69.3659V65.9162V50.1871H52.6864H52.1864V49.6871V25.3436V24.8436H52.6864H121.254H121.453L121.598 24.9801L134.482 37.1519ZM24.2531 98.8743H24.0543L23.9098 98.7377L11.0256 86.5659L10.6409 86.2025L11.0256 85.839L23.9102 73.6672L24.0548 73.5307H24.2536H95.6351H96.1351V74.0307V98.3743V98.8743H95.6351H24.2531Z" fill="white" stroke="white"/>
</svg>
