<svg width="158" height="38" viewBox="0 0 158 38" fill="none" xmlns="http://www.w3.org/2000/svg">
<path d="M30.1035 33.46C28.4759 34.8434 26.6611 35.9095 24.6592 36.6582C22.6572 37.3906 20.5739 37.7568 18.4092 37.7568C16.749 37.7568 15.1458 37.5371 13.5996 37.0977C12.0697 36.6745 10.6374 36.0723 9.30273 35.291C7.9681 34.4935 6.7474 33.5495 5.64062 32.459C4.53385 31.3522 3.58984 30.1315 2.80859 28.7969C2.02734 27.446 1.41699 25.9974 0.977539 24.4512C0.554362 22.9049 0.342773 21.3018 0.342773 19.6416C0.342773 17.9814 0.554362 16.3864 0.977539 14.8564C1.41699 13.3265 2.02734 11.8942 2.80859 10.5596C3.58984 9.20866 4.53385 7.98796 5.64062 6.89746C6.7474 5.79069 7.9681 4.84668 9.30273 4.06543C10.6374 3.28418 12.0697 2.68197 13.5996 2.25879C15.1458 1.81934 16.749 1.59961 18.4092 1.59961C20.5739 1.59961 22.6572 1.97396 24.6592 2.72266C26.6611 3.45508 28.4759 4.51302 30.1035 5.89648L26.4414 12C25.3835 10.9258 24.1628 10.0876 22.7793 9.48535C21.3958 8.86686 19.9391 8.55762 18.4092 8.55762C16.8792 8.55762 15.4388 8.85059 14.0879 9.43652C12.7533 10.0225 11.5814 10.82 10.5723 11.8291C9.56315 12.8219 8.76562 13.9938 8.17969 15.3447C7.59375 16.6794 7.30078 18.1117 7.30078 19.6416C7.30078 21.1878 7.59375 22.6364 8.17969 23.9873C8.76562 25.3382 9.56315 26.5182 10.5723 27.5273C11.5814 28.5365 12.7533 29.334 14.0879 29.9199C15.4388 30.5059 16.8792 30.7988 18.4092 30.7988C19.2881 30.7988 20.1426 30.693 20.9727 30.4814C21.8027 30.2699 22.5921 29.9769 23.3408 29.6025V19.6416H30.1035V33.46ZM45.1914 30.6035C45.4518 30.6849 45.7122 30.7419 45.9727 30.7744C46.2331 30.7907 46.4935 30.7988 46.7539 30.7988C47.4049 30.7988 48.0316 30.7093 48.6338 30.5303C49.236 30.3512 49.7975 30.099 50.3184 29.7734C50.8555 29.4316 51.3275 29.0247 51.7344 28.5527C52.1576 28.0645 52.4993 27.5273 52.7598 26.9414L57.6426 31.8486C57.0241 32.7275 56.3079 33.5169 55.4941 34.2168C54.6966 34.9167 53.8258 35.5107 52.8818 35.999C51.9541 36.4873 50.9694 36.8535 49.9277 37.0977C48.9023 37.3581 47.8444 37.4883 46.7539 37.4883C44.9147 37.4883 43.1813 37.1465 41.5537 36.4629C39.9424 35.7793 38.5264 34.8271 37.3057 33.6064C36.1012 32.3857 35.1491 30.9372 34.4492 29.2607C33.7493 27.568 33.3994 25.7126 33.3994 23.6943C33.3994 21.6273 33.7493 19.7393 34.4492 18.0303C35.1491 16.3213 36.1012 14.8646 37.3057 13.6602C38.5264 12.4557 39.9424 11.5199 41.5537 10.8525C43.1813 10.1852 44.9147 9.85156 46.7539 9.85156C47.8444 9.85156 48.9105 9.98177 49.9521 10.2422C50.9938 10.5026 51.9785 10.877 52.9062 11.3652C53.8503 11.8535 54.7292 12.4557 55.543 13.1719C56.3568 13.8717 57.0729 14.6611 57.6914 15.54L45.1914 30.6035ZM48.6094 16.8584C48.3001 16.7445 47.9909 16.6712 47.6816 16.6387C47.3887 16.6061 47.0794 16.5898 46.7539 16.5898C45.8424 16.5898 44.9798 16.7607 44.166 17.1025C43.3685 17.4281 42.6686 17.9001 42.0664 18.5186C41.4805 19.137 41.0166 19.8857 40.6748 20.7646C40.333 21.6273 40.1621 22.6038 40.1621 23.6943C40.1621 23.9385 40.1702 24.2152 40.1865 24.5244C40.2191 24.8337 40.2598 25.151 40.3086 25.4766C40.3737 25.7858 40.4469 26.0869 40.5283 26.3799C40.6097 26.6729 40.7155 26.9333 40.8457 27.1611L48.6094 16.8584ZM74.1709 37C72.5596 37 71.0459 36.6989 69.6299 36.0967C68.2139 35.4782 66.9688 34.64 65.8945 33.582C64.8366 32.5078 63.9984 31.2627 63.3799 29.8467C62.7777 28.4307 62.4766 26.917 62.4766 25.3057V17.542H59.2295V10.9014H62.4766V0.452148H69.1172V10.9014H79.2246V17.542H69.1172V25.3057C69.1172 26.0055 69.2474 26.6647 69.5078 27.2832C69.7682 27.8854 70.1263 28.4144 70.582 28.8701C71.0378 29.3258 71.5749 29.6921 72.1934 29.9688C72.8118 30.2292 73.471 30.3594 74.1709 30.3594H79.2246V37H74.1709ZM108.253 23.6943C108.253 25.6475 107.903 27.4704 107.203 29.1631C106.503 30.8395 105.551 32.2962 104.347 33.5332C103.142 34.7539 101.726 35.7223 100.099 36.4385C98.4873 37.1383 96.7539 37.4883 94.8984 37.4883C93.0592 37.4883 91.3258 37.1383 89.6982 36.4385C88.0869 35.7223 86.6709 34.7539 85.4502 33.5332C84.2458 32.2962 83.2936 30.8395 82.5938 29.1631C81.8939 27.4704 81.5439 25.6475 81.5439 23.6943C81.5439 21.7087 81.8939 19.8695 82.5938 18.1768C83.2936 16.484 84.2458 15.0273 85.4502 13.8066C86.6709 12.5697 88.0869 11.6012 89.6982 10.9014C91.3258 10.2015 93.0592 9.85156 94.8984 9.85156C96.7539 9.85156 98.4873 10.1852 100.099 10.8525C101.726 11.5036 103.142 12.4395 104.347 13.6602C105.551 14.8646 106.503 16.3213 107.203 18.0303C107.903 19.723 108.253 21.611 108.253 23.6943ZM101.539 23.6943C101.539 22.6201 101.36 21.6517 101.002 20.7891C100.66 19.9102 100.188 19.1615 99.5859 18.543C98.9837 17.9082 98.2757 17.4281 97.4619 17.1025C96.6644 16.7607 95.8099 16.5898 94.8984 16.5898C93.987 16.5898 93.1243 16.7607 92.3105 17.1025C91.513 17.4281 90.8132 17.9082 90.2109 18.543C89.625 19.1615 89.1611 19.9102 88.8193 20.7891C88.4775 21.6517 88.3066 22.6201 88.3066 23.6943C88.3066 24.7035 88.4775 25.6393 88.8193 26.502C89.1611 27.3646 89.625 28.1133 90.2109 28.748C90.8132 29.3828 91.513 29.8874 92.3105 30.2617C93.1243 30.6198 93.987 30.7988 94.8984 30.7988C95.8099 30.7988 96.6644 30.6279 97.4619 30.2861C98.2757 29.9443 98.9837 29.4642 99.5859 28.8457C100.188 28.2272 100.66 27.4785 101.002 26.5996C101.36 25.7207 101.539 24.7523 101.539 23.6943ZM131.153 33.9482C130.616 34.4365 130.038 34.9004 129.42 35.3398C128.818 35.763 128.183 36.1374 127.516 36.4629C126.848 36.7721 126.157 37.0163 125.44 37.1953C124.741 37.3906 124.024 37.4883 123.292 37.4883C121.681 37.4883 120.167 37.2035 118.751 36.6338C117.335 36.0641 116.09 35.2585 115.016 34.2168C113.958 33.1589 113.119 31.8812 112.501 30.3838C111.899 28.8701 111.598 27.1774 111.598 25.3057V10.8525H118.238V25.3057C118.238 26.1846 118.368 26.974 118.629 27.6738C118.906 28.3574 119.272 28.9352 119.728 29.4072C120.183 29.8792 120.712 30.2373 121.314 30.4814C121.933 30.7256 122.592 30.8477 123.292 30.8477C123.976 30.8477 124.618 30.693 125.221 30.3838C125.839 30.0583 126.376 29.6351 126.832 29.1143C127.288 28.5934 127.646 28.0075 127.906 27.3564C128.167 26.6891 128.297 26.0055 128.297 25.3057V10.8525H134.962V37H133.351L131.153 33.9482ZM146.729 37H140.064V10.8525H141.676L143.873 13.9531C144.947 12.9766 146.168 12.2279 147.535 11.707C148.902 11.1699 150.318 10.9014 151.783 10.9014H157.667V17.542H151.783C151.083 17.542 150.424 17.6722 149.806 17.9326C149.187 18.193 148.65 18.5511 148.194 19.0068C147.739 19.4626 147.381 19.9997 147.12 20.6182C146.86 21.2367 146.729 21.8958 146.729 22.5957V37Z" fill="#7B8584"/>
</svg>
