<svg width="243" height="75" viewBox="0 0 243 75" fill="none" xmlns="http://www.w3.org/2000/svg">
<path d="M0.842285 21.252C0.842285 19.0212 1.26839 16.9282 2.12061 14.9731C2.97282 13.0181 4.12581 11.3136 5.57959 9.85986C7.05843 8.38102 8.77539 7.21549 10.7305 6.36328C12.6855 5.51107 14.7785 5.08496 17.0093 5.08496H41.7485V15.8755H17.0093C16.2573 15.8755 15.5555 16.0133 14.9038 16.2891C14.2521 16.5648 13.6756 16.9533 13.1743 17.4546C12.6981 17.9308 12.3221 18.4948 12.0464 19.1465C11.7707 19.7982 11.6328 20.5 11.6328 21.252C11.6328 22.0039 11.7707 22.7183 12.0464 23.395C12.3221 24.0467 12.6981 24.6232 13.1743 25.1245C13.6756 25.6007 14.2521 25.9767 14.9038 26.2524C15.5555 26.5282 16.2573 26.666 17.0093 26.666H27.7998C30.0306 26.666 32.1235 27.0921 34.0786 27.9443C36.0588 28.7715 37.7757 29.9245 39.2295 31.4033C40.7083 32.8571 41.8613 34.5741 42.6885 36.5542C43.5407 38.5093 43.9668 40.6022 43.9668 42.833C43.9668 45.0638 43.5407 47.1567 42.6885 49.1118C41.8613 51.0669 40.7083 52.7839 39.2295 54.2627C37.7757 55.7165 36.0588 56.8695 34.0786 57.7217C32.1235 58.5739 30.0306 59 27.7998 59H3.8501V48.2095H27.7998C28.5518 48.2095 29.2536 48.0716 29.9053 47.7959C30.557 47.5202 31.1209 47.1442 31.5972 46.668C32.0985 46.1667 32.487 45.5902 32.7627 44.9385C33.0384 44.2868 33.1763 43.585 33.1763 42.833C33.1763 42.0811 33.0384 41.3792 32.7627 40.7275C32.487 40.0758 32.0985 39.5119 31.5972 39.0356C31.1209 38.5343 30.557 38.1458 29.9053 37.8701C29.2536 37.5944 28.5518 37.4565 27.7998 37.4565H17.0093C14.7785 37.4565 12.6855 37.0304 10.7305 36.1782C8.77539 35.326 7.05843 34.173 5.57959 32.7192C4.12581 31.2404 2.97282 29.5234 2.12061 27.5684C1.26839 25.5882 0.842285 23.4827 0.842285 21.252ZM62.0889 7.79199C62.0889 8.74447 61.9009 9.63428 61.5249 10.4614C61.174 11.2886 60.6852 12.0155 60.0586 12.6421C59.432 13.2437 58.6925 13.7324 57.8403 14.1084C57.0132 14.4593 56.1234 14.6348 55.1709 14.6348C54.2184 14.6348 53.3161 14.4593 52.4639 14.1084C51.6367 13.7324 50.9098 13.2437 50.2832 12.6421C49.6816 12.0155 49.1929 11.2886 48.8169 10.4614C48.466 9.63428 48.2905 8.74447 48.2905 7.79199C48.2905 6.86458 48.466 5.9873 48.8169 5.16016C49.1929 4.30794 49.6816 3.58105 50.2832 2.97949C50.9098 2.35286 51.6367 1.8641 52.4639 1.51318C53.3161 1.13721 54.2184 0.949219 55.1709 0.949219C56.1234 0.949219 57.0132 1.13721 57.8403 1.51318C58.6925 1.8641 59.432 2.35286 60.0586 2.97949C60.6852 3.58105 61.174 4.30794 61.5249 5.16016C61.9009 5.9873 62.0889 6.86458 62.0889 7.79199ZM60.3218 59H49.9824V18.7329H60.3218V59ZM96.8291 38.5093C96.8291 37.1056 96.5534 35.7521 96.002 34.4487C95.4756 33.1203 94.7487 31.9548 93.8213 30.9521C92.8939 29.9245 91.8035 29.1099 90.5503 28.5083C89.3221 27.8817 88.0062 27.5684 86.6025 27.5684C85.1989 27.5684 83.8704 27.8065 82.6172 28.2827C81.389 28.759 80.3112 29.4608 79.3838 30.3882C78.4814 31.3156 77.7671 32.4686 77.2407 33.8472C76.7144 35.2007 76.4512 36.7547 76.4512 38.5093C76.4512 40.1886 76.7144 41.7051 77.2407 43.0586C77.7671 44.387 78.4814 45.5275 79.3838 46.48C80.3112 47.4325 81.389 48.1719 82.6172 48.6982C83.8704 49.1995 85.1989 49.4502 86.6025 49.4502C88.0062 49.4502 89.3221 49.1494 90.5503 48.5479C91.8035 47.9212 92.8939 47.1066 93.8213 46.104C94.7487 45.0763 95.4756 43.9108 96.002 42.6074C96.5534 41.279 96.8291 39.9129 96.8291 38.5093ZM107.168 53.9243C107.168 56.7567 106.63 59.4136 105.552 61.895C104.474 64.3765 102.995 66.5446 101.115 68.3994C99.2604 70.2542 97.0798 71.7205 94.5732 72.7983C92.0918 73.8761 89.4349 74.415 86.6025 74.415L81.4517 74.3398V64.0757L86.5273 64.1509C88.1315 64.1509 89.4976 63.9378 90.6255 63.5117C91.7534 63.1107 92.7059 62.5467 93.4829 61.8198C94.2599 61.118 94.874 60.3034 95.3252 59.376C95.8014 58.4486 96.1774 57.471 96.4531 56.4434C96.0521 57.0951 95.4756 57.634 94.7236 58.0601C93.9717 58.4611 93.132 58.7869 92.2046 59.0376C91.3022 59.3133 90.3498 59.5013 89.3472 59.6016C88.3696 59.7018 87.4548 59.752 86.6025 59.752C83.7702 59.752 81.1007 59.2632 78.5942 58.2856C76.1128 57.3081 73.9321 55.917 72.0522 54.1123C70.1974 52.2826 68.7311 50.0518 67.6533 47.4199C66.5755 44.7881 66.0366 41.8179 66.0366 38.5093C66.0366 35.4764 66.5755 32.6566 67.6533 30.0498C68.7311 27.443 70.1974 25.1872 72.0522 23.2822C73.9321 21.3773 76.1128 19.8859 78.5942 18.8081C81.1007 17.7303 83.7702 17.1914 86.6025 17.1914C87.9059 17.1914 89.1968 17.3543 90.4751 17.6802C91.7534 18.006 92.9941 18.4572 94.1973 19.0337C95.4004 19.6102 96.5409 20.2869 97.6187 21.064C98.7215 21.841 99.7492 22.6807 100.702 23.583L104.687 18.8081H107.168V53.9243ZM125.291 59H115.026V18.7329H117.508L120.892 22.6431C122.546 21.1392 124.413 19.9862 126.494 19.1841C128.599 18.3569 130.792 17.9434 133.073 17.9434C135.53 17.9434 137.848 18.4196 140.029 19.3721C142.209 20.2995 144.114 21.5903 145.744 23.2446C147.373 24.8739 148.651 26.7913 149.579 28.9971C150.531 31.1777 151.007 33.5088 151.007 35.9902V59H140.743V35.9902C140.743 34.9375 140.543 33.9474 140.142 33.02C139.741 32.0675 139.189 31.2404 138.487 30.5386C137.785 29.8368 136.971 29.2853 136.043 28.8843C135.116 28.4832 134.126 28.2827 133.073 28.2827C131.995 28.2827 130.98 28.4832 130.028 28.8843C129.075 29.2853 128.248 29.8368 127.546 30.5386C126.845 31.2404 126.293 32.0675 125.892 33.02C125.491 33.9474 125.291 34.9375 125.291 35.9902V59Z" fill="#525359"/>
<path d="M187.928 54.3003C187.101 55.0522 186.211 55.7666 185.259 56.4434C184.331 57.0951 183.354 57.6715 182.326 58.1729C181.299 58.6491 180.233 59.0251 179.13 59.3008C178.053 59.6016 176.95 59.752 175.822 59.752C173.34 59.752 171.009 59.3133 168.829 58.436C166.648 57.5588 164.73 56.318 163.076 54.7139C161.447 53.0846 160.156 51.117 159.204 48.811C158.276 46.48 157.812 43.8732 157.812 40.9907V18.7329H168.039V40.9907C168.039 42.3442 168.24 43.5599 168.641 44.6377C169.067 45.6904 169.631 46.5802 170.333 47.3071C171.034 48.034 171.849 48.5854 172.776 48.9614C173.729 49.3374 174.744 49.5254 175.822 49.5254C176.875 49.5254 177.865 49.2873 178.792 48.811C179.744 48.3097 180.572 47.658 181.273 46.856C181.975 46.0539 182.527 45.1515 182.928 44.1489C183.329 43.1213 183.529 42.0685 183.529 40.9907V18.7329H193.793V59H191.312L187.928 54.3003ZM211.991 74.3398H201.651V18.7329H204.133L208.231 23.583C209.158 22.7057 210.174 21.8786 211.276 21.1016C212.379 20.3245 213.52 19.6603 214.698 19.1089C215.901 18.5324 217.142 18.0812 218.42 17.7554C219.698 17.4295 220.989 17.2666 222.292 17.2666C225.125 17.2666 227.782 17.7804 230.263 18.8081C232.77 19.8107 234.95 21.2394 236.805 23.0942C238.685 24.9491 240.164 27.1924 241.242 29.8242C242.319 32.431 242.858 35.326 242.858 38.5093C242.858 41.8179 242.319 44.8006 241.242 47.4575C240.164 50.0894 238.685 52.3327 236.805 54.1875C234.95 56.0173 232.77 57.4209 230.263 58.3984C227.782 59.376 225.125 59.8647 222.292 59.8647C221.39 59.8647 220.488 59.7645 219.585 59.564C218.708 59.3634 217.831 59.1003 216.954 58.7744C216.101 58.4235 215.249 58.035 214.397 57.6089C213.57 57.1828 212.768 56.7441 211.991 56.293V74.3398ZM232.557 38.5093C232.557 36.8049 232.281 35.2759 231.729 33.9224C231.203 32.5688 230.476 31.4284 229.549 30.501C228.621 29.5485 227.531 28.8216 226.278 28.3203C225.025 27.819 223.696 27.5684 222.292 27.5684C220.889 27.5684 219.56 27.819 218.307 28.3203C217.079 28.8216 216.001 29.5485 215.074 30.501C214.146 31.4284 213.407 32.5688 212.855 33.9224C212.329 35.2759 212.066 36.8049 212.066 38.5093C212.066 40.1385 212.329 41.6299 212.855 42.9834C213.407 44.3369 214.146 45.4899 215.074 46.4424C216.001 47.3949 217.079 48.1343 218.307 48.6606C219.56 49.187 220.889 49.4502 222.292 49.4502C223.696 49.4502 225.025 49.187 226.278 48.6606C227.531 48.1343 228.621 47.3949 229.549 46.4424C230.476 45.4899 231.203 44.3369 231.729 42.9834C232.281 41.6299 232.557 40.1385 232.557 38.5093Z" fill="#42ABA7"/>
</svg>
